<svg version="1.2" xmlns="http://www.w3.org/2000/svg" viewBox="0 0 290 59" width="290" height="59"><style>.a{fill:#fff}</style><path class="a" d="m19.9 1.3h2.7l16.5 21v-21h2.9v26.2h-2.4l-16.9-21.5v21.5h-2.8z"/><path fill-rule="evenodd" class="a" d="m54.7 27.9q-1.4 0-2.7-0.4-1.3-0.4-2.3-1.1-1-0.8-1.6-1.9-0.6-1.1-0.6-2.6v-0.1q0-1.5 0.5-2.7 0.6-1.1 1.7-1.9 1.1-0.8 2.7-1.2 1.5-0.4 3.3-0.4 1.9 0 3.3 0.2 1.3 0.2 2.7 0.6v-0.7q0-2.6-1.6-3.9-1.5-1.4-4.2-1.4-1.7 0-3.1 0.4-1.4 0.4-2.8 1.1l-0.8-2.4q1.6-0.7 3.2-1.2 1.7-0.4 3.8-0.4 4.1 0 6.3 2.1 1.9 2 1.9 5.7v11.8h-2.7v-2.9q-1 1.3-2.7 2.3-1.7 1-4.3 1zm0.5-2.3q1.4 0 2.6-0.4 1.1-0.4 2-1.1 0.9-0.7 1.4-1.6 0.5-1 0.5-2.1v-1.9q-1.1-0.3-2.5-0.5-1.4-0.3-3.2-0.3-2.7 0-4.2 1.1-1.4 1.1-1.4 2.9v0.1q0 0.9 0.4 1.6 0.4 0.7 1 1.2 0.7 0.5 1.6 0.8 0.8 0.2 1.8 0.2z"/><path class="a" d="m77 27.8q-1.1 0-2.1-0.3-1-0.3-1.8-0.9-0.7-0.7-1.1-1.7-0.4-1.1-0.4-2.5v-11.7h-2.7v-2.6h2.7v-5.8h2.9v5.8h6.1v2.6h-6.1v11.3q0 1.8 0.8 2.5 0.9 0.7 2.4 0.7 0.8 0 1.4-0.1 0.7-0.2 1.4-0.6v2.5q-0.7 0.4-1.6 0.6-0.8 0.2-1.9 0.2z"/><path class="a" d="m85.7 0.2h2.8v11.3q1-1.6 2.6-2.6 1.6-1.2 4.1-1.2 1.7 0 3.1 0.6 1.3 0.6 2.3 1.6 1 1 1.5 2.4 0.5 1.5 0.5 3.2v12h-2.9v-11.3q0-2.7-1.4-4.3-1.4-1.5-4-1.5-1.2 0-2.3 0.4-1 0.4-1.8 1.2-0.8 0.8-1.2 2-0.5 1.1-0.5 2.4v11.1h-2.8z"/><path fill-rule="evenodd" class="a" d="m114.5 27.9q-1.4 0-2.7-0.4-1.3-0.4-2.3-1.1-1-0.8-1.6-1.9-0.7-1.1-0.7-2.6v-0.1q0-1.5 0.6-2.7 0.6-1.1 1.7-1.9 1.1-0.8 2.7-1.2 1.5-0.4 3.3-0.4 1.9 0 3.2 0.2 1.4 0.2 2.8 0.6v-0.7q0-2.6-1.6-3.9-1.5-1.4-4.2-1.4-1.7 0-3.1 0.4-1.4 0.4-2.8 1.1l-0.8-2.4q1.6-0.7 3.2-1.2 1.7-0.4 3.8-0.4 4.1 0 6.2 2.1 2 2 2 5.7v11.8h-2.7v-2.9q-1.1 1.3-2.8 2.3-1.7 1-4.2 1zm0.5-2.3q1.4 0 2.5-0.4 1.2-0.4 2.1-1.1 0.9-0.7 1.4-1.6 0.5-1 0.5-2.1v-1.9q-1.1-0.3-2.5-0.5-1.4-0.3-3.2-0.3-2.7 0-4.2 1.1-1.4 1.1-1.4 2.9v0.1q0 0.9 0.3 1.6 0.5 0.7 1.1 1.2 0.7 0.5 1.6 0.8 0.8 0.2 1.8 0.2z"/><path class="a" d="m130.4 8.1h2.8v3.4q1-1.6 2.6-2.6 1.6-1.2 4.1-1.2 1.7 0 3.1 0.6 1.3 0.6 2.3 1.6 0.9 1 1.4 2.4 0.6 1.5 0.6 3.2v12h-2.9v-11.3q0-2.7-1.4-4.3-1.4-1.5-4-1.5-1.2 0-2.3 0.4-1 0.4-1.8 1.2-0.8 0.8-1.2 2-0.5 1.1-0.5 2.4v11.1h-2.8z"/><path class="a" d="m153.5 0.7h3.2v3.2h-3.2zm0.2 7.4h2.8v19.4h-2.8z"/><path fill-rule="evenodd" class="a" d="m171.7 27.9q-2 0-3.8-0.7-1.7-0.7-3-2.1-1.4-1.3-2.1-3.1-0.8-1.9-0.8-4.1v-0.1q0-2.1 0.7-3.9 0.7-1.9 1.9-3.2 1.3-1.4 3-2.2 1.7-0.8 3.7-0.8 2.1 0 3.8 0.9 1.7 0.8 2.9 2.1 1.1 1.4 1.7 3.3 0.6 1.8 0.6 4 0 0.3 0 0.4 0 0.2 0 0.5h-15.4q0.2 1.6 0.8 2.8 0.6 1.2 1.5 2 0.9 0.9 2.1 1.3 1.1 0.4 2.5 0.4 2 0 3.4-0.7 1.4-0.8 2.6-2l1.8 1.6q-1.4 1.7-3.3 2.7-1.9 0.9-4.6 0.9zm5.7-11.1q-0.1-1.4-0.6-2.5-0.4-1.2-1.1-2.1-0.8-0.9-1.9-1.5-1.1-0.5-2.6-0.5-1.2 0-2.3 0.5-1.1 0.5-1.9 1.4-0.9 0.8-1.4 2-0.5 1.2-0.7 2.7z"/><path class="a" d="m185.6 0.2h2.9v27.3h-2.9z"/><path class="a" d="m206.9 1.3h18.8v2.7h-15.8v9.4h14.1v2.7h-14.1v11.4h-3z"/><path class="a" d="m230.9 8.1h2.9v5.1q0.5-1.2 1.3-2.2 0.8-1 1.8-1.7 1-0.8 2.2-1.2 1.2-0.3 2.6-0.3v3.1h-0.2q-1.6 0-3 0.6-1.4 0.5-2.4 1.7-1.1 1.1-1.7 2.8-0.6 1.6-0.6 3.8v7.7h-2.9z"/><path fill-rule="evenodd" class="a" d="m254.5 27.9q-1.9 0-3.7-0.7-1.8-0.7-3.1-2.1-1.3-1.3-2-3.1-0.8-1.9-0.8-4.1v-0.1q0-2.1 0.7-3.9 0.7-1.9 1.9-3.2 1.2-1.4 2.9-2.2 1.8-0.8 3.8-0.8 2.1 0 3.8 0.9 1.7 0.8 2.8 2.1 1.2 1.4 1.8 3.3 0.6 1.8 0.6 4 0 0.3 0 0.4 0 0.2 0 0.5h-15.4q0.2 1.6 0.8 2.8 0.6 1.2 1.5 2 0.9 0.9 2 1.3 1.2 0.4 2.5 0.4 2 0 3.5-0.7 1.4-0.8 2.6-2l1.8 1.6q-1.5 1.7-3.3 2.7-1.9 0.9-4.7 0.9zm5.8-11.1q-0.2-1.4-0.6-2.5-0.4-1.2-1.2-2.1-0.7-0.9-1.8-1.5-1.1-0.5-2.6-0.5-1.3 0-2.4 0.5-1 0.5-1.9 1.4-0.8 0.8-1.3 2-0.5 1.2-0.7 2.7z"/><path class="a" d="m268.3 0.7h3.3v3.2h-3.3zm0.2 7.4h2.9v19.4h-2.9z"/><path class="a" d="m5.2 39.7q2.1 0 3.1 1.2 1 1.2 1 3.3v0.5h-1.9v-0.6q0-1.2-0.5-1.9-0.5-0.7-1.6-0.7-1.1 0-1.6 0.7-0.5 0.7-0.5 1.9 0 1 0.5 1.7 0.4 0.8 1.1 1.4 0.7 0.6 1.5 1.2 0.7 0.6 1.4 1.4 0.7 0.7 1.1 1.6 0.5 0.9 0.5 2.2 0 2.1-1 3.3-1 1.2-3.1 1.2-2.1 0-3.1-1.2-0.9-1.2-0.9-3.3v-1h1.8v1.1q0 1.2 0.6 1.9 0.5 0.7 1.6 0.7 1 0 1.6-0.7 0.5-0.7 0.5-1.9 0-1-0.5-1.7-0.4-0.8-1.1-1.4-0.7-0.6-1.4-1.3-0.8-0.6-1.5-1.3-0.6-0.7-1.1-1.6-0.5-0.9-0.5-2.2 0-2.1 1-3.3 1-1.2 3-1.2z"/><path fill-rule="evenodd" class="a" d="m17.7 44.2q0-2.1 1-3.3 1-1.2 3.1-1.2 2.1 0 3.1 1.2 1.1 1.2 1.1 3.3v9.4q0 2-1.1 3.3-1 1.2-3.1 1.2-2.1 0-3.1-1.2-1-1.3-1-3.3zm2 9.4q0 1.3 0.5 1.9 0.5 0.7 1.6 0.7 1.1 0 1.6-0.7 0.6-0.6 0.6-1.9v-9.5q0-1.3-0.6-2-0.5-0.6-1.6-0.6-1.1 0-1.6 0.6-0.5 0.7-0.5 2z"/><path class="a" d="m40.9 48.3v1.8h-4.2v7.8h-2v-18h7.2v1.8h-5.2v6.6z"/><path class="a" d="m52.9 57.9v-16.2h-3.3v-1.8h8.6v1.8h-3.3v16.2z"/><path class="a" d="m71.2 57.9h-2.8l-2.5-18h2l2.1 15.3 2-15.3h2l2 15.4 2-15.4h1.8l-2.5 18h-2.6l-1.7-12.2z"/><path fill-rule="evenodd" class="a" d="m90.3 54.3l-0.7 3.6h-1.9l3.5-18h2.9l3.4 18h-2l-0.7-3.6zm0.3-1.7h4l-2-10.5z"/><path fill-rule="evenodd" class="a" d="m110 39.9q2.1 0 3 1 1 1.1 1 3.1v1.5q0 1.5-0.6 2.4-0.5 0.9-1.7 1.3 1.3 0.3 1.8 1.3 0.5 1 0.5 2.4v2.8q0 0.6 0 1.2 0.1 0.6 0.4 1h-2.1q-0.2-0.4-0.2-0.8-0.1-0.5-0.1-1.4v-2.8q0-1.5-0.7-2.1-0.7-0.6-1.9-0.6h-1.5v7.7h-2v-18zm-0.5 8.5q1.2 0 1.9-0.5 0.7-0.5 0.7-2v-1.7q0-1.3-0.5-1.9-0.5-0.6-1.6-0.6h-2v6.7z"/><path class="a" d="m129.3 47.9v1.8h-4.4v6.4h5.4v1.8h-7.4v-18h7.4v1.8h-5.4v6.2z"/><path fill-rule="evenodd" class="a" d="m154 39.9q2.1 0 3.1 1.2 1 1.2 1 3.3v9.1q0 2-1 3.2-1 1.2-3.1 1.2h-4.2v-18zm0 16.2q1 0 1.6-0.7 0.5-0.6 0.5-1.9v-9.3q0-1.2-0.5-1.8-0.6-0.7-1.6-0.7h-2.2v14.4z"/><path class="a" d="m173.2 47.9v1.8h-4.4v6.4h5.5v1.8h-7.5v-18h7.5v1.8h-5.5v6.2z"/><path class="a" d="m184.4 39.9l3 15.7 2.9-15.7h1.9l-3.4 18h-3l-3.4-18z"/><path class="a" d="m206.9 47.9v1.8h-4.4v6.4h5.5v1.8h-7.5v-18h7.5v1.8h-5.5v6.2z"/><path class="a" d="m216.6 57.9v-18h2v16.2h5.2v1.8z"/><path fill-rule="evenodd" class="a" d="m232 44.2q0-2.1 1-3.3 1-1.2 3.1-1.2 2.1 0 3.1 1.2 1 1.2 1 3.3v9.4q0 2-1 3.3-1 1.2-3.1 1.2-2.1 0-3.1-1.2-1-1.3-1-3.3zm1.9 9.4q0 1.3 0.6 1.9 0.5 0.7 1.6 0.7 1.1 0 1.6-0.7 0.5-0.6 0.5-1.9v-9.5q0-1.3-0.5-2-0.5-0.6-1.6-0.6-1.1 0-1.6 0.6-0.6 0.7-0.6 2z"/><path fill-rule="evenodd" class="a" d="m252.9 39.9q2.2 0 3.1 1.1 1 1.2 1 3.3v2.1q0 2.2-1.1 3.3-1 1.1-3.1 1.1h-1.8v7.1h-2v-18zm-0.2 9.1q1.1 0 1.7-0.5 0.5-0.6 0.5-1.9v-2.4q0-1.3-0.5-1.9-0.4-0.6-1.5-0.6h-2v7.3z"/><path class="a" d="m271.8 47.9v1.8h-4.4v6.4h5.4v1.8h-7.5v-18h7.5v1.8h-5.4v6.2z"/><path fill-rule="evenodd" class="a" d="m285.5 39.9q2.1 0 3 1 1 1.1 1 3.1v1.5q0 1.5-0.6 2.4-0.5 0.9-1.7 1.3 1.3 0.3 1.8 1.3 0.5 1 0.5 2.4v2.8q0 0.6 0.1 1.2 0 0.6 0.3 1h-2.1q-0.1-0.4-0.2-0.8-0.1-0.5-0.1-1.4v-2.8q0-1.5-0.7-2.1-0.7-0.6-1.9-0.6h-1.4v7.7h-2.1v-18zm-0.5 8.5q1.2 0 1.9-0.5 0.7-0.5 0.7-2v-1.7q0-1.3-0.5-1.9-0.5-0.6-1.6-0.6h-2v6.7z"/></svg>