<svg version="1.2" xmlns="http://www.w3.org/2000/svg" viewBox="0 0 257 29" width="257" height="29"><style>.a{fill:#fff}</style><path class="a" d="m2.9 2.3h2.7l16.5 21v-21h2.9v26.2h-2.4l-16.9-21.5v21.5h-2.8z"/><path fill-rule="evenodd" class="a" d="m37.7 28.9q-1.4 0-2.7-0.4-1.3-0.4-2.3-1.1-1-0.8-1.6-1.9-0.6-1.1-0.6-2.6v-0.1q0-1.5 0.5-2.7 0.6-1.1 1.7-1.9 1.1-0.8 2.7-1.2 1.5-0.4 3.3-0.4 1.9 0 3.3 0.2 1.3 0.2 2.7 0.6v-0.7q0-2.6-1.6-3.9-1.5-1.4-4.2-1.4-1.7 0-3.1 0.4-1.4 0.4-2.8 1l-0.8-2.3q1.6-0.7 3.2-1.2 1.7-0.4 3.8-0.4 4.1 0 6.3 2.1 1.9 2 1.9 5.7v11.8h-2.7v-2.9q-1 1.3-2.7 2.3-1.7 1-4.3 1zm0.5-2.3q1.4 0 2.6-0.4 1.1-0.4 2-1.1 0.9-0.7 1.4-1.6 0.5-1 0.5-2.1v-1.9q-1.1-0.3-2.5-0.5-1.4-0.3-3.2-0.3-2.7 0-4.2 1.1-1.4 1.1-1.4 2.9v0.1q0 0.9 0.4 1.6 0.4 0.7 1 1.2 0.7 0.5 1.6 0.8 0.8 0.2 1.8 0.2z"/><path class="a" d="m60 28.8q-1.1 0-2.1-0.3-1-0.3-1.8-0.9-0.7-0.7-1.1-1.7-0.4-1.1-0.4-2.5v-11.7h-2.7v-2.6h2.7v-5.8h2.9v5.8h6.1v2.6h-6.1v11.3q0 1.8 0.8 2.5 0.9 0.7 2.4 0.7 0.8 0 1.4-0.1 0.7-0.2 1.4-0.6v2.5q-0.7 0.4-1.6 0.6-0.8 0.2-1.9 0.2z"/><path class="a" d="m68.7 1.2h2.8v11.3q1-1.6 2.6-2.7 1.6-1.1 4.1-1.1 1.7 0 3.1 0.6 1.3 0.6 2.3 1.6 1 1 1.5 2.4 0.5 1.5 0.5 3.2v12h-2.9v-11.3q0-2.7-1.4-4.3-1.4-1.5-4-1.5-1.2 0-2.3 0.4-1 0.4-1.8 1.2-0.8 0.8-1.2 2-0.5 1.1-0.5 2.4v11.1h-2.8z"/><path fill-rule="evenodd" class="a" d="m97.5 28.9q-1.4 0-2.7-0.4-1.3-0.4-2.3-1.1-1-0.8-1.6-1.9-0.7-1.1-0.7-2.6v-0.1q0-1.5 0.6-2.7 0.6-1.1 1.7-1.9 1.1-0.8 2.7-1.2 1.5-0.4 3.3-0.4 1.9 0 3.2 0.2 1.4 0.2 2.8 0.6v-0.7q0-2.6-1.6-3.9-1.5-1.4-4.2-1.4-1.7 0-3.1 0.4-1.4 0.4-2.8 1l-0.8-2.3q1.6-0.7 3.2-1.2 1.7-0.4 3.8-0.4 4.1 0 6.2 2.1 2 2 2 5.7v11.8h-2.7v-2.9q-1.1 1.3-2.8 2.3-1.7 1-4.2 1zm0.5-2.3q1.4 0 2.5-0.4 1.2-0.4 2.1-1.1 0.9-0.7 1.4-1.6 0.5-1 0.5-2.1v-1.9q-1.1-0.3-2.5-0.5-1.4-0.3-3.2-0.3-2.7 0-4.2 1.1-1.4 1.1-1.4 2.9v0.1q0 0.9 0.3 1.6 0.5 0.7 1.1 1.2 0.7 0.5 1.6 0.8 0.8 0.2 1.8 0.2z"/><path class="a" d="m113.4 9.1h2.8v3.4q1-1.6 2.6-2.7 1.6-1.1 4.1-1.1 1.7 0 3.1 0.6 1.3 0.6 2.3 1.6 0.9 1 1.4 2.4 0.6 1.5 0.6 3.2v12h-2.9v-11.3q0-2.7-1.4-4.3-1.4-1.5-4-1.5-1.2 0-2.3 0.4-1 0.4-1.8 1.2-0.8 0.8-1.2 2-0.5 1.1-0.5 2.4v11.1h-2.8z"/><path class="a" d="m136.5 1.7h3.2v3.2h-3.2zm0.2 7.4h2.8v19.4h-2.8z"/><path fill-rule="evenodd" class="a" d="m154.7 28.9q-2 0-3.8-0.7-1.7-0.7-3-2.1-1.4-1.3-2.1-3.1-0.8-1.9-0.8-4.1v-0.1q0-2.1 0.7-3.9 0.7-1.9 1.9-3.2 1.3-1.4 3-2.2 1.7-0.8 3.7-0.8 2.1 0 3.8 0.9 1.7 0.8 2.9 2.1 1.1 1.4 1.7 3.3 0.6 1.8 0.6 4 0 0.3 0 0.4 0 0.2 0 0.5h-15.4q0.2 1.6 0.8 2.8 0.6 1.2 1.5 2 0.9 0.9 2.1 1.3 1.1 0.4 2.5 0.4 2 0 3.4-0.7 1.4-0.8 2.6-2l1.8 1.6q-1.4 1.7-3.3 2.7-1.9 0.9-4.6 0.9zm5.7-11.1q-0.1-1.4-0.6-2.5-0.4-1.2-1.1-2.1-0.8-0.9-1.9-1.5-1.1-0.5-2.6-0.5-1.2 0-2.3 0.5-1.1 0.5-1.9 1.4-0.9 0.8-1.4 2-0.5 1.2-0.7 2.7z"/><path class="a" d="m168.6 1.2h2.9v27.3h-2.9z"/><path class="a" d="m189.9 2.3h18.8v2.7h-15.8v9.4h14.1v2.7h-14.1v11.4h-3z"/><path class="a" d="m213.9 9.1h2.9v5.1q0.5-1.2 1.3-2.2 0.8-1 1.8-1.7 1-0.8 2.2-1.2 1.2-0.3 2.6-0.3v3.1h-0.2q-1.6 0-3 0.6-1.4 0.5-2.4 1.7-1.1 1.1-1.7 2.8-0.6 1.6-0.6 3.8v7.7h-2.9z"/><path fill-rule="evenodd" class="a" d="m237.5 28.9q-1.9 0-3.7-0.7-1.8-0.7-3.1-2.1-1.3-1.3-2-3.1-0.8-1.9-0.8-4.1v-0.1q0-2.1 0.7-3.9 0.7-1.9 1.9-3.2 1.2-1.4 2.9-2.2 1.8-0.8 3.8-0.8 2.1 0 3.8 0.9 1.7 0.8 2.8 2.1 1.2 1.4 1.8 3.3 0.6 1.8 0.6 4 0 0.3 0 0.4 0 0.2 0 0.5h-15.4q0.2 1.6 0.8 2.8 0.6 1.2 1.5 2 0.9 0.9 2 1.3 1.2 0.4 2.5 0.4 2 0 3.5-0.7 1.4-0.8 2.6-2l1.8 1.6q-1.5 1.7-3.3 2.7-1.9 0.9-4.7 0.9zm5.8-11.1q-0.2-1.4-0.6-2.5-0.4-1.2-1.2-2.1-0.7-0.9-1.8-1.5-1.1-0.5-2.6-0.5-1.3 0-2.4 0.5-1 0.5-1.9 1.4-0.8 0.8-1.3 2-0.5 1.2-0.7 2.7z"/><path class="a" d="m251.3 1.7h3.3v3.2h-3.3zm0.2 7.4h2.9v19.4h-2.9z"/></svg>