<svg version="1.2" xmlns="http://www.w3.org/2000/svg" viewBox="0 0 290 255" width="290" height="255"><defs><clipPath clipPathUnits="userSpaceOnUse" id="cp1"><path d="m89.7 0.78h111.51v38.63h-111.51z"/></clipPath><clipPath clipPathUnits="userSpaceOnUse" id="cp2"><path d="m145.51 0.78q-0.77 0.01-1.53 0.3c-1.07 0.42-2.07 1-3.06 1.57-14.86 8.56-29.74 17.06-44.51 25.76-2.05 1.2-4.44 2-5.88 4.34-1.23 1.99-0.62 3.38 0.5 4.84 0.88 1.15 1.99 1.73 3.11 1.73q0.9 0 1.78-0.49l22.04-12.49c0.74-0.44 1.38-0.65 2.02-0.65 0.65 0 1.31 0.23 2.07 0.68l20.49 11.9c0.95 0.55 1.95 1.14 3 1.14q0.71 0.01 1.44-0.43c5.88-3.66 12.25-6.5 17.93-10.37 2.23-1.52 4.2-2.25 6.13-2.25 2.02 0 4.02 0.8 6.28 2.34 5.42 3.73 11.34 6.75 17.11 9.97q1.15 0.62 2.28 0.62c1.55 0 2.96-0.86 3.84-2.36 1.17-2.01 0.61-4.31-1.5-5.86l-2.38-1.48c-7.46-4.31-14.96-8.56-22.37-12.95-1.15-0.68-2.22-1.03-3.29-1.03-1.01 0-2.03 0.3-3.12 0.95l-20.48 11.9c-0.7 0.42-1.32 0.65-1.94 0.65-0.57 0-1.14-0.19-1.79-0.57l-12.69-7.33c-0.53-0.31-1.38-0.43-1.38-1.19-0.01-0.77 0.86-0.86 1.39-1.17l16.22-9.38c1.56-0.9 2.76-2.08 2.84-4.04 0.07-2.59-2.09-4.63-4.49-4.65z"/></clipPath><clipPath clipPathUnits="userSpaceOnUse" id="cp3"><path d="m89.76 89h60.37v97.79h-60.37z"/></clipPath><clipPath clipPathUnits="userSpaceOnUse" id="cp4"><path d="m94.34 89.16c-1.46 0-2.82 0.84-3.79 2.33-1.24 1.93-0.83 4.12 1.2 5.71 1.01 0.79 2.14 1.44 3.27 2.09l18.32 10.5c1.57 0.87 2.18 1.89 2.15 3.74l-0.14 23.08c-0.04 2.68 0.94 4.47 3.26 5.78l20.37 11.7c1.52 0.85 2.09 1.87 2.07 3.59l-0.09 21.79q-0.01 1.83 0.25 3.65c0.27 1.83 1.49 2.89 3.16 3.46q0.63 0.21 1.19 0.21c1.1 0 2.06-0.55 2.97-1.32 1.57-1.35 1.49-3.2 1.49-4.98l0.02-27.61h0.05v-26.96c-0.01-1.22-0.05-2.45-0.27-3.65-0.37-2.07-2.23-3.55-4.27-3.58q-0.02 0-0.05 0c-2.02 0-3.86 1.43-4.31 3.49-0.2 0.9-0.22 1.86-0.23 2.78l-0.01 17.69c0.01 1.19-0.13 1.73-0.65 1.73q-0.43-0.01-1.3-0.53l-12.69-7.37c-1.44-0.81-1.89-1.82-1.86-3.48l0.13-23.07c0.01-2.38-0.66-4.36-2.87-5.63l-25.21-14.53q-1.09-0.61-2.16-0.61z"/></clipPath><clipPath clipPathUnits="userSpaceOnUse" id="cp5"><path d="m64.31 44.91h111.69v38.81h-111.69z"/></clipPath><clipPath clipPathUnits="userSpaceOnUse" id="cp6"><path d="m171.13 44.91c-1.08 0-2.09 0.5-3.08 1.07l-20.88 12.13c-0.62 0.37-1.15 0.56-1.69 0.56-0.52 0-1.04-0.17-1.64-0.53l-20.68-12.03c-1.13-0.66-2.19-1.02-3.24-1.02-0.98 0-1.96 0.3-3 0.92l-20.54 12.03c-0.69 0.41-1.29 0.62-1.9 0.62-0.58 0-1.16-0.19-1.82-0.58l-20.52-11.9c-1.06-0.61-2.12-1.21-3.55-1.25-1.84 0.2-3.16 1.31-3.92 3.09-0.74 1.72-0.25 3.29 1.06 4.51 0.89 0.82 1.95 1.47 3.01 2.08l46.46 26.84c1.05 0.61 2.11 1.26 3.24 1.71q0.82 0.33 1.64 0.32c1.51 0 2.92-0.81 3.77-2.21 1.16-1.91 0.8-4.11-1.01-5.61-0.77-0.63-1.64-1.16-2.51-1.66l-14.95-8.59c-0.54-0.32-1.31-0.51-1.25-1.3 0.03-0.48 0.52-0.72 0.99-0.97 4.34-2.4 8.69-4.78 12.9-7.37 0.72-0.44 1.33-0.64 1.93-0.64 0.63 0 1.25 0.23 1.96 0.65l20.48 11.93q1.62 0.97 3.15 0.97 1.52 0 3.1-0.98l7.83-4.56q8.39-4.86 16.76-9.76c1.51-0.89 2.51-2.23 2.37-4.06-0.15-1.85-1.2-3.19-2.87-4.02q-0.83-0.39-1.6-0.39z"/></clipPath><clipPath clipPathUnits="userSpaceOnUse" id="cp7"><path d="m166.09 44.91h60.8v97.89h-60.8z"/></clipPath><clipPath clipPathUnits="userSpaceOnUse" id="cp8"><path d="m222.24 44.95c-0.91 0-1.81 0.33-2.71 0.84l-10.84 6.22q-13.71 7.89-27.41 15.81c-4.19 2.43-8.42 4.81-12.51 7.41-2.49 1.58-2.98 3.86-1.68 5.87 1.02 1.56 2.12 2.33 3.46 2.33q1.27 0 2.88-0.91l16.87-9.48q0.77-0.44 1.18-0.44c0.49 0 0.64 0.49 0.62 1.53-0.07 4.67-0.21 9.36 0.03 14.02 0.13 2.44-0.93 3.62-2.83 4.69l-19.37 11.03c-2.44 1.38-3.56 3.29-3.47 6.15 0.14 4.38 0.03 8.77 0.03 13.15h0.07l0.07 14.88c0.05 2.48 1.89 4.3 4.13 4.48q0.15 0.01 0.29 0.01c1.88 0 3.77-1.48 4.3-3.52 0.23-0.9 0.26-1.85 0.26-2.78l-0.02-23.29c0-1.09-0.01-2.07 1.14-2.74 6.9-3.94 13.7-8.07 20.69-11.84 2.65-1.42 3.77-3.18 3.74-6.09l-0.07-23.3c-0.02-1.57 0.48-2.48 1.87-3.23 3.54-1.91 6.99-3.98 10.47-6 3.55-2.05 7.13-4.04 10.61-6.2 1.75-1.08 2.62-2.54 2.64-4v-0.07c-0.02-1.31-0.72-2.63-2.11-3.69-0.78-0.59-1.56-0.84-2.33-0.84z"/></clipPath><clipPath clipPathUnits="userSpaceOnUse" id="cp9"><path d="m64.31 74.66h60.38v97.34h-60.38z"/></clipPath><clipPath clipPathUnits="userSpaceOnUse" id="cp10"><path d="m69.31 74.8q-0.08 0-0.15 0c-2.92 0.16-4.84 1.47-4.79 5.18 0.13 8.84 0.15 17.68-0.03 26.52-0.07 3.32 1.17 5.32 4.01 6.9 6.67 3.67 13.19 7.6 19.82 11.35 1.29 0.73 1.82 1.58 1.79 3.07l-0.09 14.45c-0.01 0.67 0.39 1.56-0.33 1.98q-0.23 0.13-0.45 0.13c-0.52 0-1-0.5-1.47-0.77l-16.42-9.5q-1.16-0.67-2.27-0.67-1.51 0.02-2.87 1.18c-1.04 0.88-1.74 1.96-1.74 3.3v0.04q0 0.36 0.07 0.73c0.32 1.8 1.68 2.78 3.11 3.62l16.97 9.83c11.01 6.35 22 12.73 33.03 19.05q1.43 0.81 2.68 0.8c1.46 0 2.71-0.8 3.65-2.31 1.3-2.08 0.78-4.24-1.5-5.99l-1.64-1.03c-6.74-3.89-13.47-7.8-20.24-11.65-1.16-0.66-1.57-1.47-1.55-2.77l0.03-12.29h0.03l0.03-11.42c0.08-2.67-0.94-4.46-3.28-5.78l-20-11.46c-1.69-0.96-2.41-2.01-2.37-4.05 0.15-7.69 0.09-15.38 0.07-23.07 0-2.9-1.87-5.37-4.1-5.37z"/></clipPath><clipPath clipPathUnits="userSpaceOnUse" id="cp11"><path d="m166.09 74.23h60.8v97.77h-60.8z"/></clipPath><clipPath clipPathUnits="userSpaceOnUse" id="cp12"><path d="m222.07 74.42c-1.68 0-2.93 0.97-3.87 2.41-0.65 1-0.62 2.18-0.62 3.35l0.05 23.51c0.01 1.55-0.46 2.46-1.85 3.24l-20.64 11.9c-2.27 1.29-3.14 3.06-3.11 5.64l0.05 23.52c0.01 1.11 0 2.12-1.16 2.78l-14.37 8.28c-2.64 1.54-5.35 2.98-7.86 4.7-2.61 1.78-2.92 4.27-1.13 6.48q1.42 1.76 3.28 1.77 1.3 0 2.87-0.89l23.92-13.75c2.57-1.45 3.57-3.42 3.53-6.32l-0.06-23.51c-0.01-1.18 0.16-1.99 1.41-2.72l13.53-7.67q0.66-0.36 1.01-0.36c0.45 0 0.58 0.44 0.57 1.33l-0.03 11.64c0.01 2.73-0.04 5.47 0.05 8.2 0.07 2.05 1.12 3.51 3.05 4.3q0.77 0.31 1.45 0.3c1.15 0 2.15-0.57 3.09-1.4 1.23-1.1 1.43-2.58 1.43-4.13l-0.01-28.48h0.01v-22.86c0-2.3 0.04-4.61-0.1-6.9-0.13-2.17-1.69-3.93-3.65-4.28q-0.44-0.08-0.84-0.08z"/></clipPath><clipPath clipPathUnits="userSpaceOnUse" id="cp13"><path d="m137.24 86.6h16.52v16.53h-16.52z"/></clipPath><clipPath clipPathUnits="userSpaceOnUse" id="cp14"><path d="m145.5 86.6c-4.56 0-8.26 3.7-8.26 8.26 0 4.57 3.7 8.27 8.26 8.27 4.56 0 8.26-3.7 8.26-8.27 0-4.56-3.7-8.26-8.26-8.26z"/></clipPath></defs><style>.a{fill:#5ce1e6}.b{fill:#fff}</style><g clip-path="url(#cp1)"><g clip-path="url(#cp2)"><path class="a" d="m89.9 0.8h111.3v38.6h-111.3z"/></g></g><g clip-path="url(#cp3)"><g clip-path="url(#cp4)"><path class="a" d="m62.2 42.8h166.9v146.1h-166.9z"/></g></g><g clip-path="url(#cp5)"><g clip-path="url(#cp6)"><path class="a" d="m62.2 42.8h166.9v146.1h-166.9z"/></g></g><g clip-path="url(#cp7)"><g clip-path="url(#cp8)"><path class="a" d="m62.2 42.8h166.9v146.1h-166.9z"/></g></g><g clip-path="url(#cp9)"><g clip-path="url(#cp10)"><path class="a" d="m62.2 42.8h166.9v146.1h-166.9z"/></g></g><g clip-path="url(#cp11)"><g clip-path="url(#cp12)"><path class="a" d="m62.2 42.8h166.9v146.1h-166.9z"/></g></g><g clip-path="url(#cp13)"><g clip-path="url(#cp14)"><path class="b" d="m137.2 86.6h16.6v16.5h-16.6z"/></g></g><path class="b" d="m19.9 198h2.7l16.5 21v-21h2.9v26.2h-2.4l-16.9-21.5v21.5h-2.8z"/><path fill-rule="evenodd" class="b" d="m54.7 224.6q-1.4 0-2.7-0.4-1.3-0.3-2.3-1.1-1-0.8-1.6-1.9-0.6-1.1-0.6-2.6v-0.1q0-1.5 0.5-2.7 0.6-1.1 1.7-1.9 1.1-0.8 2.7-1.2 1.5-0.4 3.3-0.4 1.9 0 3.3 0.2 1.3 0.2 2.7 0.6v-0.7q0-2.6-1.6-3.9-1.5-1.4-4.2-1.4-1.7 0-3.1 0.4-1.4 0.4-2.8 1.1l-0.8-2.4q1.6-0.7 3.2-1.2 1.7-0.4 3.8-0.4 4.1 0 6.3 2.1 1.9 2 1.9 5.7v11.8h-2.7v-2.9q-1 1.3-2.7 2.3-1.7 1-4.3 1zm0.5-2.3q1.4 0 2.6-0.4 1.1-0.3 2-1 0.9-0.7 1.4-1.7 0.5-0.9 0.5-2.1v-1.9q-1.1-0.3-2.5-0.5-1.4-0.3-3.2-0.3-2.7 0-4.2 1.1-1.4 1.1-1.4 2.9v0.1q0 0.9 0.4 1.6 0.4 0.7 1 1.2 0.7 0.5 1.6 0.8 0.8 0.2 1.8 0.2z"/><path class="b" d="m77 224.5q-1.1 0-2.1-0.3-1-0.3-1.8-0.9-0.7-0.7-1.1-1.7-0.4-1.1-0.4-2.5v-11.7h-2.7v-2.5h2.7v-5.9h2.9v5.9h6.1v2.5h-6.1v11.3q0 1.8 0.8 2.5 0.9 0.7 2.4 0.7 0.8 0 1.4-0.1 0.7-0.2 1.4-0.5v2.4q-0.7 0.4-1.6 0.6-0.8 0.2-1.9 0.2z"/><path class="b" d="m85.7 196.9h2.8v11.3q1-1.5 2.6-2.6 1.6-1.1 4.1-1.1 1.7 0 3.1 0.5 1.3 0.6 2.3 1.6 1 1 1.5 2.4 0.5 1.5 0.5 3.2v12h-2.9v-11.3q0-2.7-1.4-4.2-1.4-1.6-4-1.6-1.2 0-2.3 0.4-1 0.4-1.8 1.3-0.8 0.7-1.2 1.9-0.5 1.1-0.5 2.4v11.1h-2.8z"/><path fill-rule="evenodd" class="b" d="m114.5 224.6q-1.4 0-2.7-0.4-1.3-0.3-2.3-1.1-1-0.8-1.6-1.9-0.7-1.1-0.7-2.6v-0.1q0-1.5 0.6-2.7 0.6-1.1 1.7-1.9 1.1-0.8 2.7-1.2 1.5-0.4 3.3-0.4 1.9 0 3.2 0.2 1.4 0.2 2.8 0.6v-0.7q0-2.6-1.6-3.9-1.5-1.4-4.2-1.4-1.7 0-3.1 0.4-1.4 0.4-2.8 1.1l-0.8-2.4q1.6-0.7 3.2-1.2 1.7-0.4 3.8-0.4 4.1 0 6.2 2.1 2 2 2 5.7v11.8h-2.7v-2.9q-1.1 1.3-2.8 2.3-1.7 1-4.2 1zm0.5-2.3q1.4 0 2.5-0.4 1.2-0.3 2.1-1 0.9-0.7 1.4-1.7 0.5-0.9 0.5-2.1v-1.9q-1.1-0.3-2.5-0.5-1.4-0.3-3.2-0.3-2.7 0-4.2 1.1-1.4 1.1-1.4 2.9v0.1q0 0.9 0.3 1.6 0.5 0.7 1.1 1.2 0.7 0.5 1.6 0.8 0.8 0.2 1.8 0.2z"/><path class="b" d="m130.4 204.9h2.8v3.3q1-1.5 2.6-2.6 1.6-1.1 4.1-1.1 1.7 0 3.1 0.5 1.3 0.6 2.3 1.6 0.9 1 1.4 2.4 0.6 1.5 0.6 3.2v12h-2.9v-11.3q0-2.7-1.4-4.2-1.4-1.6-4-1.6-1.2 0-2.3 0.4-1 0.4-1.8 1.3-0.8 0.7-1.2 1.9-0.5 1.1-0.5 2.4v11.1h-2.8z"/><path class="b" d="m153.5 197.5h3.2v3.1h-3.2zm0.2 7.4h2.8v19.4h-2.8z"/><path fill-rule="evenodd" class="b" d="m171.7 224.7q-2 0-3.8-0.8-1.7-0.7-3-2-1.4-1.4-2.1-3.2-0.8-1.9-0.8-4.1v-0.1q0-2.1 0.7-3.9 0.7-1.8 1.9-3.2 1.3-1.4 3-2.1 1.7-0.8 3.7-0.8 2.1 0 3.8 0.8 1.7 0.8 2.9 2.2 1.1 1.3 1.7 3.2 0.6 1.8 0.6 4 0 0.3 0 0.5 0 0.1 0 0.4h-15.4q0.2 1.6 0.8 2.8 0.6 1.2 1.5 2.1 0.9 0.8 2.1 1.2 1.1 0.4 2.5 0.4 2 0 3.4-0.7 1.4-0.7 2.6-2l1.8 1.6q-1.4 1.7-3.3 2.7-1.9 1-4.6 1zm5.7-11.2q-0.1-1.3-0.6-2.5-0.4-1.2-1.1-2.1-0.8-0.9-1.9-1.5-1.1-0.5-2.6-0.5-1.2 0-2.3 0.5-1.1 0.5-1.9 1.4-0.9 0.9-1.4 2.1-0.5 1.2-0.7 2.6z"/><path class="b" d="m185.6 196.9h2.9v27.3h-2.9z"/><path class="b" d="m206.9 198h18.8v2.8h-15.8v9.3h14.1v2.7h-14.1v11.4h-3z"/><path class="b" d="m230.9 204.9h2.9v5q0.5-1.2 1.3-2.2 0.8-1 1.8-1.7 1-0.8 2.2-1.1 1.2-0.4 2.6-0.4v3.1h-0.2q-1.6 0-3 0.6-1.4 0.6-2.4 1.7-1.1 1.1-1.7 2.8-0.6 1.6-0.6 3.8v7.7h-2.9z"/><path fill-rule="evenodd" class="b" d="m254.5 224.7q-1.9 0-3.7-0.8-1.8-0.7-3.1-2-1.3-1.4-2-3.2-0.8-1.9-0.8-4.1v-0.1q0-2.1 0.7-3.9 0.7-1.8 1.9-3.2 1.2-1.4 2.9-2.1 1.8-0.8 3.8-0.8 2.1 0 3.8 0.8 1.7 0.8 2.8 2.2 1.2 1.3 1.8 3.2 0.6 1.8 0.6 4 0 0.3 0 0.5 0 0.1 0 0.4h-15.4q0.2 1.6 0.8 2.8 0.6 1.2 1.5 2.1 0.9 0.8 2 1.2 1.2 0.4 2.5 0.4 2 0 3.5-0.7 1.4-0.7 2.6-2l1.8 1.6q-1.5 1.7-3.3 2.7-1.9 1-4.7 1zm5.8-11.2q-0.2-1.3-0.6-2.5-0.4-1.2-1.2-2.1-0.7-0.9-1.8-1.5-1.1-0.5-2.6-0.5-1.3 0-2.4 0.5-1 0.5-1.9 1.4-0.8 0.9-1.3 2.1-0.5 1.2-0.7 2.6z"/><path class="b" d="m268.3 197.5h3.3v3.1h-3.3zm0.2 7.4h2.9v19.4h-2.9z"/><path class="b" d="m5.3 236.4q2.1 0 3 1.2 1 1.3 1 3.3v0.5h-1.9v-0.6q0-1.2-0.5-1.9-0.5-0.7-1.6-0.7-1 0-1.5 0.7-0.5 0.7-0.5 1.9 0 1 0.4 1.7 0.5 0.8 1.2 1.4 0.6 0.6 1.4 1.2 0.8 0.7 1.5 1.4 0.6 0.7 1.1 1.6 0.4 0.9 0.4 2.2 0 2.1-1 3.3-0.9 1.2-3 1.2-2.1 0-3.1-1.2-1-1.2-1-3.3v-1h1.9v1.1q0 1.2 0.5 1.9 0.5 0.7 1.6 0.7 1.1 0 1.6-0.7 0.5-0.7 0.5-1.9 0-1-0.4-1.7-0.5-0.8-1.2-1.4-0.6-0.6-1.4-1.2-0.8-0.7-1.4-1.4-0.7-0.7-1.2-1.6-0.4-0.9-0.4-2.2 0-2.1 1-3.3 0.9-1.2 3-1.2z"/><path fill-rule="evenodd" class="b" d="m17.7 240.9q0-2 1.1-3.3 1-1.2 3.1-1.2 2.1 0 3.1 1.2 1 1.3 1 3.3v9.4q0 2-1 3.3-1 1.2-3.1 1.2-2.1 0-3.1-1.2-1.1-1.3-1.1-3.3zm2 9.4q0 1.3 0.6 1.9 0.5 0.7 1.6 0.7 1.1 0 1.6-0.7 0.5-0.6 0.5-1.9v-9.5q0-1.3-0.5-1.9-0.5-0.7-1.6-0.7-1.1 0-1.6 0.7-0.6 0.6-0.6 1.9z"/><path class="b" d="m40.9 245v1.8h-4.1v7.8h-2.1v-18h7.2v1.8h-5.1v6.6z"/><path class="b" d="m52.9 254.6v-16.2h-3.3v-1.8h8.6v1.8h-3.3v16.2z"/><path class="b" d="m71.2 254.6h-2.8l-2.4-18h1.9l2.1 15.3 2.1-15.3h1.9l2 15.4 2.1-15.4h1.7l-2.4 18h-2.7l-1.7-12.2z"/><path fill-rule="evenodd" class="b" d="m90.3 251l-0.7 3.6h-1.9l3.5-18h2.9l3.5 18h-2.1l-0.6-3.6zm0.2-1.7h4.1l-2.1-10.4z"/><path fill-rule="evenodd" class="b" d="m110 236.6q2.1 0 3 1 1 1.1 1 3.1v1.5q0 1.5-0.6 2.4-0.5 0.9-1.6 1.3 1.2 0.3 1.7 1.3 0.5 1 0.5 2.4v2.9q0 0.6 0.1 1.1 0 0.6 0.3 1h-2.1q-0.1-0.4-0.2-0.8-0.1-0.5-0.1-1.4v-2.8q0-1.5-0.7-2.1-0.7-0.6-1.9-0.6h-1.4v7.7h-2.1v-18zm-0.5 8.5q1.2 0 1.9-0.5 0.7-0.5 0.7-2v-1.7q0-1.2-0.5-1.9-0.5-0.6-1.6-0.6h-2v6.7z"/><path class="b" d="m129.3 244.6v1.8h-4.4v6.4h5.4v1.8h-7.4v-18h7.4v1.8h-5.4v6.2z"/><path fill-rule="evenodd" class="b" d="m154 236.6q2.2 0 3.1 1.2 1 1.2 1 3.3v9.1q0 2.1-1 3.2-0.9 1.2-3.1 1.2h-4.2v-18zm0 16.2q1.1 0 1.6-0.7 0.5-0.6 0.5-1.9v-9.2q0-1.3-0.5-1.9-0.5-0.7-1.6-0.7h-2.2v14.4z"/><path class="b" d="m173.2 244.6v1.8h-4.4v6.4h5.5v1.8h-7.5v-18h7.5v1.8h-5.5v6.2z"/><path class="b" d="m184.4 236.6l3 15.7 2.9-15.7h1.9l-3.4 18h-3l-3.4-18z"/><path class="b" d="m206.9 244.6v1.8h-4.4v6.4h5.4v1.8h-7.4v-18h7.4v1.8h-5.4v6.2z"/><path class="b" d="m216.6 254.6v-18h2v16.2h5.2v1.8z"/><path fill-rule="evenodd" class="b" d="m231.9 240.9q0-2 1.1-3.3 1-1.2 3.1-1.2 2.1 0 3.1 1.2 1 1.3 1 3.3v9.4q0 2-1 3.3-1 1.2-3.1 1.2-2.1 0-3.1-1.2-1.1-1.3-1.1-3.3zm2 9.4q0 1.3 0.6 1.9 0.5 0.7 1.6 0.7 1.1 0 1.6-0.7 0.5-0.6 0.5-1.9v-9.5q0-1.3-0.5-1.9-0.5-0.7-1.6-0.7-1.1 0-1.6 0.7-0.6 0.6-0.6 1.9z"/><path fill-rule="evenodd" class="b" d="m252.9 236.6q2.1 0 3.1 1.2 0.9 1.1 0.9 3.2v2.1q0 2.2-1 3.3-1 1.1-3.2 1.1h-1.7v7.1h-2.1v-18zm-0.1 9.1q1.1 0 1.7-0.5 0.5-0.6 0.5-1.9v-2.4q0-1.2-0.5-1.9-0.5-0.6-1.6-0.6h-1.9v7.3z"/><path class="b" d="m271.7 244.6v1.8h-4.4v6.4h5.5v1.8h-7.5v-18h7.5v1.8h-5.5v6.2z"/><path fill-rule="evenodd" class="b" d="m285.4 236.6q2.2 0 3.1 1 1 1.1 1 3.1v1.5q0 1.5-0.6 2.4-0.5 0.9-1.7 1.3 1.3 0.3 1.8 1.3 0.5 1 0.5 2.4v2.9q0 0.6 0 1.1 0.1 0.6 0.3 1h-2q-0.2-0.4-0.3-0.8 0-0.5 0-1.4v-2.8q0-1.5-0.7-2.1-0.7-0.6-2-0.6h-1.4v7.7h-2v-18zm-0.5 8.5q1.2 0 1.9-0.5 0.6-0.5 0.6-2v-1.7q0-1.2-0.4-1.9-0.5-0.6-1.7-0.6h-1.9v6.7z"/></svg>