<svg version="1.2" xmlns="http://www.w3.org/2000/svg" viewBox="0 0 157 180" width="157" height="180"><defs><clipPath clipPathUnits="userSpaceOnUse" id="cp1"><path d="m24.45-0.37h108.02v37.42h-108.02z"/></clipPath><clipPath clipPathUnits="userSpaceOnUse" id="cp2"><path d="m78.51-0.37q-0.74 0-1.49 0.29c-1.03 0.4-2 0.97-2.96 1.52-14.39 8.29-28.81 16.53-43.12 24.95-1.98 1.17-4.3 1.94-5.69 4.21-1.19 1.93-0.61 3.28 0.48 4.69 0.85 1.11 1.92 1.67 3.02 1.67q0.87 0.01 1.71-0.47l21.36-12.11c0.72-0.42 1.34-0.62 1.95-0.62 0.64 0 1.27 0.22 2.01 0.66l19.85 11.52c0.92 0.54 1.89 1.11 2.91 1.11q0.68 0.01 1.4-0.42c5.68-3.54 11.86-6.3 17.36-10.04 2.16-1.47 4.07-2.18 5.94-2.18 1.96 0 3.9 0.77 6.08 2.27 5.26 3.61 11 6.53 16.58 9.65q1.12 0.61 2.21 0.6c1.5 0 2.87-0.83 3.72-2.28 1.13-1.95 0.59-4.17-1.46-5.67l-2.3-1.44c-7.23-4.18-14.49-8.3-21.67-12.55-1.11-0.66-2.15-1-3.19-1q-1.46-0.01-3.02 0.93l-19.83 11.53c-0.69 0.4-1.29 0.62-1.89 0.62-0.55 0-1.1-0.18-1.73-0.55l-12.3-7.1c-0.51-0.3-1.33-0.42-1.33-1.15-0.01-0.75 0.83-0.84 1.34-1.14l15.72-9.08c1.51-0.88 2.67-2.02 2.75-3.92 0.06-2.51-2.03-4.48-4.35-4.5z"/></clipPath><clipPath clipPathUnits="userSpaceOnUse" id="cp3"><path d="m24.5 85h58.49v94.83h-58.49z"/></clipPath><clipPath clipPathUnits="userSpaceOnUse" id="cp4"><path d="m28.94 85.24c-1.42 0-2.73 0.82-3.67 2.27-1.21 1.87-0.81 3.99 1.16 5.53 0.98 0.76 2.08 1.39 3.16 2.01l17.75 10.18c1.52 0.85 2.11 1.84 2.09 3.63l-0.14 22.35c-0.04 2.6 0.91 4.33 3.16 5.61l19.74 11.33c1.46 0.82 2.02 1.81 2 3.48l-0.09 21.1q-0.01 1.79 0.24 3.54c0.27 1.77 1.45 2.8 3.07 3.36q0.6 0.2 1.15 0.19c1.06 0 1.99-0.52 2.87-1.27 1.53-1.3 1.45-3.1 1.45-4.82l0.01-26.75h0.06l-0.01-26.12c0-1.18-0.04-2.38-0.25-3.53-0.36-2.01-2.16-3.45-4.14-3.47q-0.02 0-0.05 0c-1.96 0-3.74 1.38-4.17 3.37-0.2 0.88-0.22 1.8-0.22 2.7l-0.02 17.14c0.02 1.14-0.13 1.67-0.63 1.67q-0.42 0-1.26-0.51l-12.29-7.14c-1.4-0.79-1.84-1.76-1.8-3.37l0.12-22.35c0.01-2.31-0.64-4.22-2.78-5.45l-24.42-14.09q-1.06-0.59-2.09-0.59z"/></clipPath><clipPath clipPathUnits="userSpaceOnUse" id="cp5"><path d="m-0.15 42.38h108.15v37.6h-108.15z"/></clipPath><clipPath clipPathUnits="userSpaceOnUse" id="cp6"><path d="m103.33 42.38c-1.04 0-2.03 0.48-2.99 1.04l-20.22 11.75c-0.6 0.36-1.12 0.54-1.64 0.54-0.51 0-1.01-0.17-1.59-0.51l-20.04-11.65c-1.09-0.65-2.11-0.99-3.14-0.99-0.94 0-1.89 0.29-2.89 0.88l-19.9 11.66c-0.68 0.4-1.26 0.6-1.85 0.6-0.55 0-1.12-0.18-1.76-0.56l-19.87-11.53c-1.03-0.59-2.07-1.17-3.45-1.21-1.78 0.19-3.06 1.27-3.8 2.99-0.71 1.67-0.24 3.19 1.04 4.37 0.86 0.79 1.89 1.42 2.91 2.01l45 26.02c1.03 0.58 2.05 1.21 3.14 1.64q0.8 0.32 1.59 0.32c1.47 0 2.83-0.79 3.66-2.15 1.12-1.85 0.77-3.98-0.98-5.43-0.75-0.61-1.59-1.13-2.44-1.61l-14.48-8.33c-0.52-0.3-1.27-0.48-1.22-1.25 0.04-0.47 0.52-0.69 0.97-0.94 4.2-2.33 8.42-4.63 12.5-7.14 0.69-0.42 1.28-0.62 1.87-0.62 0.61 0 1.21 0.22 1.9 0.63l19.84 11.56q1.57 0.94 3.05 0.94 1.48 0 3.01-0.95l7.58-4.41q8.12-4.72 16.23-9.46c1.47-0.87 2.44-2.16 2.3-3.94-0.14-1.79-1.16-3.1-2.78-3.89q-0.8-0.38-1.55-0.38z"/></clipPath><clipPath clipPathUnits="userSpaceOnUse" id="cp7"><path d="m98.45 42.38h58.9v94.62h-58.9z"/></clipPath><clipPath clipPathUnits="userSpaceOnUse" id="cp8"><path d="m152.84 42.41c-0.88 0-1.75 0.33-2.62 0.82l-10.51 6.03q-13.28 7.64-26.55 15.31c-4.06 2.36-8.15 4.66-12.11 7.18-2.42 1.53-2.89 3.75-1.64 5.69 0.99 1.51 2.06 2.26 3.36 2.26q1.23-0.01 2.79-0.89l16.35-9.18q0.74-0.43 1.13-0.43c0.48 0 0.62 0.48 0.61 1.49-0.08 4.53-0.21 9.06 0.03 13.58 0.12 2.36-0.91 3.51-2.74 4.54l-18.77 10.69c-2.37 1.33-3.45 3.19-3.37 5.95 0.14 4.25 0.04 8.5 0.04 12.75h0.07l0.06 14.41c0.05 2.41 1.83 4.16 4 4.34q0.14 0.01 0.28 0.01c1.82 0 3.66-1.43 4.17-3.41 0.22-0.87 0.25-1.8 0.25-2.69l-0.01-22.57c-0.01-1.05-0.02-2 1.1-2.65 6.68-3.82 13.27-7.82 20.04-11.47 2.57-1.38 3.65-3.08 3.62-5.9l-0.06-22.57c-0.02-1.53 0.46-2.4 1.81-3.13 3.43-1.85 6.77-3.86 10.14-5.82 3.43-1.98 6.91-3.91 10.28-6 1.69-1.05 2.54-2.46 2.55-3.88v-0.06c-0.01-1.27-0.69-2.55-2.05-3.58-0.75-0.57-1.5-0.81-2.25-0.82z"/></clipPath><clipPath clipPathUnits="userSpaceOnUse" id="cp9"><path d="m-0.15 71.21h58.49v94.41h-58.49z"/></clipPath><clipPath clipPathUnits="userSpaceOnUse" id="cp10"><path d="m4.69 71.34q-0.07-0.01-0.15 0c-2.83 0.15-4.68 1.41-4.63 5.02 0.12 8.56 0.14 17.13-0.04 25.69-0.07 3.21 1.13 5.16 3.89 6.68 6.45 3.56 12.78 7.37 19.2 10.99 1.25 0.71 1.76 1.53 1.73 2.98l-0.08 14c-0.01 0.65 0.37 1.51-0.32 1.92q-0.22 0.12-0.43 0.12c-0.52 0-0.98-0.48-1.44-0.75l-15.9-9.19q-1.13-0.66-2.2-0.66-1.46 0.02-2.78 1.15c-1.01 0.85-1.68 1.9-1.69 3.2h0.01v0.03q-0.01 0.35 0.06 0.71c0.32 1.75 1.63 2.7 3.02 3.51l16.43 9.52c10.67 6.15 21.32 12.33 32.01 18.45q1.38 0.79 2.59 0.78c1.41 0 2.62-0.77 3.53-2.23 1.27-2.03 0.76-4.12-1.45-5.81l-1.59-1c-6.53-3.77-13.04-7.56-19.6-11.28-1.13-0.64-1.52-1.42-1.5-2.69l0.02-11.9h0.04l0.03-11.07c0.07-2.59-0.92-4.32-3.19-5.59l-19.37-11.12c-1.64-0.92-2.33-1.94-2.3-3.91 0.15-7.45 0.09-14.9 0.07-22.35 0-2.81-1.8-5.2-3.97-5.2z"/></clipPath><clipPath clipPathUnits="userSpaceOnUse" id="cp11"><path d="m98.45 70.79h58.9v94.83h-58.9z"/></clipPath><clipPath clipPathUnits="userSpaceOnUse" id="cp12"><path d="m152.68 70.97c-1.63 0-2.84 0.94-3.75 2.33-0.63 0.97-0.6 2.12-0.6 3.24l0.04 22.78c0.01 1.51-0.44 2.38-1.78 3.14l-20 11.53c-2.2 1.25-3.05 2.96-3.02 5.47l0.05 22.78c0.01 1.08 0 2.06-1.12 2.69l-13.91 8.03c-2.56 1.49-5.19 2.88-7.63 4.54-2.52 1.73-2.82 4.14-1.09 6.28q1.37 1.71 3.18 1.72 1.26 0 2.77-0.86l23.18-13.32c2.49-1.41 3.46-3.31 3.42-6.12l-0.06-22.78c0-1.14 0.16-1.93 1.37-2.63l13.11-7.44q0.64-0.35 0.97-0.35c0.44 0 0.56 0.43 0.55 1.29l-0.02 11.28c0.01 2.65-0.04 5.3 0.05 7.95 0.07 1.98 1.08 3.4 2.95 4.16q0.75 0.3 1.41 0.3c1.11 0 2.08-0.57 2.98-1.37 1.21-1.06 1.39-2.49 1.39-4l-0.01-27.59h0.02l-0.01-22.14c0-2.24 0.05-4.47-0.09-6.69-0.13-2.1-1.64-3.8-3.54-4.15q-0.43-0.07-0.81-0.07z"/></clipPath><clipPath clipPathUnits="userSpaceOnUse" id="cp13"><path d="m70.5 82.77h16v16.01h-16z"/></clipPath><clipPath clipPathUnits="userSpaceOnUse" id="cp14"><path d="m78.5 82.77c-4.42 0-8 3.58-8 8 0 4.43 3.58 8.01 8 8.01 4.42 0 8-3.58 8-8.01 0-4.42-3.58-8-8-8z"/></clipPath></defs><style>.a{fill:#0097b2}</style><g clip-path="url(#cp1)"><g clip-path="url(#cp2)"><path class="a" d="m24.6-0.4h107.9v37.5h-107.9z"/></g></g><g clip-path="url(#cp3)"><g clip-path="url(#cp4)"><path class="a" d="m-2.2 40.3h161.6v141.6h-161.6z"/></g></g><g clip-path="url(#cp5)"><g clip-path="url(#cp6)"><path class="a" d="m-2.2 40.3h161.6v141.6h-161.6z"/></g></g><g clip-path="url(#cp7)"><g clip-path="url(#cp8)"><path class="a" d="m-2.2 40.3h161.6v141.6h-161.6z"/></g></g><g clip-path="url(#cp9)"><g clip-path="url(#cp10)"><path class="a" d="m-2.2 40.3h161.6v141.6h-161.6z"/></g></g><g clip-path="url(#cp11)"><g clip-path="url(#cp12)"><path class="a" d="m-2.2 40.3h161.6v141.6h-161.6z"/></g></g><g clip-path="url(#cp13)"><g clip-path="url(#cp14)"><path  d="m70.5 82.8h16v16h-16z"/></g></g></svg>