<svg version="1.2" xmlns="http://www.w3.org/2000/svg" viewBox="0 0 163 185" width="163" height="185"><defs><clipPath clipPathUnits="userSpaceOnUse" id="cp1"><path d="m25.7-0.58h111.51v38.62h-111.51z"/></clipPath><clipPath clipPathUnits="userSpaceOnUse" id="cp2"><path d="m81.51-0.58q-0.77 0-1.53 0.3c-1.07 0.41-2.07 1-3.06 1.57-14.86 8.56-29.74 17.06-44.51 25.75-2.05 1.21-4.44 2.01-5.88 4.35-1.23 1.99-0.62 3.38 0.5 4.83 0.88 1.16 1.99 1.74 3.11 1.74q0.9 0 1.78-0.49l22.04-12.5c0.74-0.43 1.38-0.65 2.02-0.65 0.65 0 1.31 0.23 2.07 0.69l20.49 11.89c0.95 0.55 1.95 1.14 3 1.14q0.71 0.02 1.44-0.42c5.88-3.66 12.25-6.51 17.93-10.38 2.23-1.51 4.2-2.25 6.13-2.25 2.02 0 4.02 0.81 6.28 2.35 5.42 3.72 11.34 6.75 17.11 9.96q1.15 0.63 2.28 0.63c1.55 0 2.96-0.86 3.84-2.36 1.17-2.02 0.61-4.31-1.5-5.86l-2.38-1.48c-7.46-4.31-14.96-8.57-22.37-12.96-1.15-0.68-2.22-1.03-3.29-1.03-1.01 0-2.03 0.31-3.12 0.96l-20.48 11.9c-0.7 0.42-1.32 0.64-1.94 0.64-0.57 0-1.14-0.19-1.79-0.57l-12.69-7.32c-0.53-0.31-1.38-0.43-1.38-1.19-0.01-0.78 0.86-0.87 1.39-1.17l16.22-9.38c1.56-0.91 2.76-2.08 2.84-4.05 0.06-2.59-2.09-4.62-4.49-4.64z"/></clipPath><clipPath clipPathUnits="userSpaceOnUse" id="cp3"><path d="m25.76 87.53h60.37v97.9h-60.37z"/></clipPath><clipPath clipPathUnits="userSpaceOnUse" id="cp4"><path d="m30.34 87.79c-1.46 0-2.82 0.84-3.79 2.34-1.24 1.93-0.83 4.12 1.2 5.71 1.01 0.78 2.14 1.43 3.27 2.08l18.32 10.5c1.57 0.88 2.18 1.9 2.15 3.74l-0.14 23.08c-0.04 2.69 0.94 4.47 3.26 5.79l20.37 11.7c1.52 0.85 2.09 1.86 2.07 3.59l-0.09 21.79q-0.01 1.83 0.25 3.65c0.27 1.82 1.49 2.89 3.16 3.46q0.63 0.21 1.19 0.2c1.1 0 2.06-0.54 2.97-1.31 1.57-1.35 1.49-3.2 1.49-4.98l0.02-27.61h0.05v-26.96c-0.01-1.22-0.05-2.45-0.27-3.65-0.37-2.07-2.23-3.55-4.27-3.58q-0.02 0-0.05 0c-2.02 0-3.86 1.43-4.31 3.49-0.2 0.9-0.22 1.85-0.23 2.78l-0.01 17.69c0.01 1.18-0.13 1.73-0.65 1.73q-0.43-0.01-1.3-0.54l-12.69-7.36c-1.44-0.81-1.89-1.82-1.86-3.48l0.13-23.07c0.01-2.39-0.66-4.36-2.87-5.63l-25.21-14.54q-1.09-0.61-2.16-0.61z"/></clipPath><clipPath clipPathUnits="userSpaceOnUse" id="cp5"><path d="m0.31 43.55h111.69v38.81h-111.69z"/></clipPath><clipPath clipPathUnits="userSpaceOnUse" id="cp6"><path d="m107.13 43.55c-1.08 0-2.09 0.5-3.08 1.07l-20.88 12.13c-0.62 0.37-1.15 0.55-1.69 0.55-0.52 0-1.04-0.17-1.64-0.52l-20.68-12.03c-1.13-0.67-2.19-1.02-3.24-1.02-0.98 0-1.96 0.3-3 0.91l-20.54 12.03c-0.69 0.42-1.29 0.63-1.9 0.63-0.58 0-1.16-0.19-1.82-0.58l-20.52-11.9c-1.06-0.62-2.12-1.21-3.55-1.25-1.84 0.19-3.16 1.31-3.92 3.08-0.74 1.73-0.25 3.3 1.06 4.51 0.89 0.82 1.95 1.47 3.01 2.08l46.46 26.85c1.05 0.61 2.11 1.25 3.24 1.7q0.82 0.33 1.64 0.33c1.51 0 2.92-0.82 3.77-2.21 1.16-1.91 0.8-4.11-1.01-5.61-0.77-0.64-1.64-1.17-2.51-1.67l-14.95-8.59c-0.54-0.31-1.31-0.5-1.25-1.29 0.03-0.49 0.52-0.72 0.99-0.98 4.34-2.39 8.69-4.78 12.9-7.36 0.72-0.44 1.33-0.65 1.93-0.65 0.63 0 1.25 0.23 1.96 0.65l20.48 11.94q1.62 0.97 3.15 0.97 1.52 0 3.1-0.98l7.83-4.56q8.39-4.86 16.76-9.76c1.51-0.89 2.51-2.23 2.37-4.06-0.15-1.85-1.2-3.2-2.87-4.02q-0.83-0.4-1.6-0.39z"/></clipPath><clipPath clipPathUnits="userSpaceOnUse" id="cp7"><path d="m102.09 43.55h60.8v97.89h-60.8z"/></clipPath><clipPath clipPathUnits="userSpaceOnUse" id="cp8"><path d="m158.24 43.58c-0.91 0-1.81 0.34-2.71 0.84l-10.84 6.22q-13.71 7.9-27.41 15.82c-4.19 2.43-8.42 4.81-12.51 7.4-2.49 1.59-2.98 3.87-1.68 5.87 1.02 1.57 2.12 2.34 3.46 2.34q1.27-0.01 2.88-0.91l16.87-9.48q0.77-0.45 1.18-0.45c0.49 0 0.64 0.5 0.62 1.54-0.07 4.67-0.21 9.36 0.03 14.02 0.13 2.44-0.93 3.62-2.83 4.68l-19.37 11.04c-2.44 1.38-3.56 3.29-3.47 6.14 0.14 4.38 0.03 8.77 0.03 13.16h0.07l0.07 14.88c0.05 2.48 1.89 4.29 4.13 4.47q0.15 0.02 0.29 0.02c1.88 0 3.77-1.48 4.3-3.53 0.23-0.89 0.26-1.85 0.26-2.77l-0.02-23.3c0-1.08-0.01-2.06 1.14-2.73 6.9-3.94 13.7-8.08 20.69-11.84 2.65-1.43 3.77-3.19 3.74-6.1l-0.07-23.29c-0.02-1.58 0.48-2.48 1.87-3.23 3.54-1.91 6.99-3.99 10.47-6 3.55-2.06 7.13-4.05 10.61-6.2 1.75-1.09 2.62-2.54 2.64-4.01v-0.06c-0.02-1.31-0.72-2.64-2.11-3.7-0.78-0.59-1.56-0.83-2.33-0.84z"/></clipPath><clipPath clipPathUnits="userSpaceOnUse" id="cp9"><path d="m0.31 73.3h60.38v97.46h-60.38z"/></clipPath><clipPath clipPathUnits="userSpaceOnUse" id="cp10"><path d="m5.31 73.44q-0.08 0-0.15 0c-2.92 0.15-4.84 1.46-4.79 5.18 0.13 8.83 0.15 17.68-0.03 26.52-0.07 3.32 1.17 5.32 4.01 6.9 6.67 3.67 13.19 7.6 19.82 11.34 1.29 0.74 1.82 1.58 1.79 3.08l-0.09 14.44c-0.01 0.67 0.39 1.56-0.33 1.99q-0.23 0.13-0.45 0.13c-0.52 0-1-0.51-1.47-0.78l-16.42-9.49q-1.16-0.68-2.27-0.67-1.51 0.01-2.87 1.17c-1.04 0.88-1.74 1.97-1.74 3.31v0.04q0 0.35 0.07 0.73c0.32 1.8 1.68 2.78 3.11 3.62l16.97 9.82c11.01 6.36 22 12.74 33.03 19.05q1.43 0.82 2.68 0.81c1.46 0 2.71-0.8 3.65-2.31 1.3-2.09 0.78-4.25-1.5-6l-1.64-1.02c-6.74-3.89-13.47-7.81-20.24-11.65-1.16-0.66-1.57-1.47-1.55-2.77l0.03-12.29h0.03l0.03-11.43c0.08-2.67-0.94-4.45-3.28-5.77l-20-11.47c-1.69-0.95-2.41-2.01-2.37-4.04 0.15-7.69 0.09-15.38 0.07-23.08 0-2.9-1.87-5.36-4.1-5.36z"/></clipPath><clipPath clipPathUnits="userSpaceOnUse" id="cp11"><path d="m102.09 73h60.8v97.76h-60.8z"/></clipPath><clipPath clipPathUnits="userSpaceOnUse" id="cp12"><path d="m158.07 73.05c-1.68 0-2.93 0.97-3.87 2.42-0.65 0.99-0.62 2.18-0.62 3.34l0.05 23.51c0.01 1.56-0.46 2.47-1.85 3.25l-20.64 11.9c-2.27 1.28-3.14 3.05-3.11 5.64l0.05 23.52c0.01 1.11 0 2.12-1.16 2.78l-14.37 8.28c-2.64 1.53-5.35 2.97-7.86 4.69-2.61 1.79-2.92 4.27-1.13 6.48q1.42 1.76 3.28 1.77 1.3 0.01 2.87-0.89l23.92-13.74c2.57-1.45 3.57-3.42 3.53-6.32l-0.06-23.52c-0.01-1.18 0.16-1.98 1.41-2.71l13.53-7.68q0.66-0.36 1.01-0.36c0.45 0 0.58 0.45 0.57 1.34l-0.03 11.64c0.01 2.73-0.04 5.47 0.05 8.2 0.07 2.05 1.12 3.51 3.05 4.3q0.77 0.31 1.45 0.3c1.15 0 2.15-0.58 3.09-1.4 1.23-1.1 1.43-2.58 1.43-4.14l-0.01-28.47h0.01v-22.87c0-2.29 0.04-4.6-0.1-6.9-0.13-2.17-1.69-3.92-3.65-4.28q-0.44-0.07-0.84-0.08z"/></clipPath><clipPath clipPathUnits="userSpaceOnUse" id="cp13"><path d="m73.24 85.24h16.52v16.52h-16.52z"/></clipPath><clipPath clipPathUnits="userSpaceOnUse" id="cp14"><path d="m81.5 85.24c-4.56 0-8.26 3.7-8.26 8.26 0 4.56 3.7 8.26 8.26 8.26 4.56 0 8.26-3.7 8.26-8.26 0-4.56-3.7-8.26-8.26-8.26z"/></clipPath></defs><style>.a{fill:#5ce1e6}.b{fill:#fff}</style><g clip-path="url(#cp1)"><g clip-path="url(#cp2)"><path class="a" d="m25.9-0.6h111.3v38.6h-111.3z"/></g></g><g clip-path="url(#cp3)"><g clip-path="url(#cp4)"><path class="a" d="m-1.8 41.4h166.9v146.2h-166.9z"/></g></g><g clip-path="url(#cp5)"><g clip-path="url(#cp6)"><path class="a" d="m-1.8 41.4h166.9v146.2h-166.9z"/></g></g><g clip-path="url(#cp7)"><g clip-path="url(#cp8)"><path class="a" d="m-1.8 41.4h166.9v146.2h-166.9z"/></g></g><g clip-path="url(#cp9)"><g clip-path="url(#cp10)"><path class="a" d="m-1.8 41.4h166.9v146.2h-166.9z"/></g></g><g clip-path="url(#cp11)"><g clip-path="url(#cp12)"><path class="a" d="m-1.8 41.4h166.9v146.2h-166.9z"/></g></g><g clip-path="url(#cp13)"><g clip-path="url(#cp14)"><path class="b" d="m73.2 85.2h16.6v16.6h-16.6z"/></g></g></svg>