<svg version="1.2" xmlns="http://www.w3.org/2000/svg" viewBox="0 0 289 58" width="289" height="58"><style></style><path  d="m18.9 1.5h2.7l16.5 20.9v-20.9h2.9v26.1h-2.4l-16.9-21.4v21.4h-2.8z"/><path fill-rule="evenodd" d="m53.7 28q-1.4 0-2.7-0.3-1.3-0.4-2.3-1.2-1-0.7-1.7-1.9-0.6-1.1-0.6-2.6v-0.1q0-1.5 0.6-2.7 0.6-1.1 1.7-1.9 1.1-0.8 2.7-1.2 1.5-0.4 3.3-0.4 1.9 0 3.3 0.2 1.3 0.2 2.7 0.6v-0.7q0-2.6-1.6-3.9-1.5-1.3-4.2-1.3-1.7 0-3.1 0.4-1.4 0.4-2.8 1l-0.8-2.4q1.6-0.7 3.2-1.1 1.7-0.5 3.8-0.5 4.1 0 6.2 2.2 2 1.9 2 5.6v11.8h-2.7v-2.9q-1.1 1.3-2.8 2.3-1.7 1-4.2 1zm0.5-2.3q1.4 0.1 2.5-0.3 1.2-0.4 2.1-1.1 0.9-0.7 1.4-1.7 0.5-0.9 0.5-2.1v-1.8q-1.1-0.3-2.5-0.6-1.4-0.3-3.2-0.3-2.7 0-4.2 1.1-1.4 1.1-1.4 2.9v0.1q0 0.9 0.4 1.6 0.3 0.8 1 1.2 0.7 0.5 1.6 0.8 0.8 0.3 1.8 0.2z"/><path  d="m76 28q-1.1 0-2.1-0.3-1.1-0.3-1.8-1-0.7-0.7-1.1-1.7-0.4-1-0.4-2.5v-11.7h-2.7v-2.5h2.7v-5.8h2.9v5.8h6.1v2.5h-6.1v11.3q0 1.8 0.8 2.5 0.9 0.7 2.4 0.7 0.7 0 1.4-0.1 0.6-0.2 1.4-0.5v2.4q-0.8 0.5-1.6 0.6-0.8 0.3-1.9 0.3z"/><path  d="m84.7 0.3h2.8v11.4q1-1.6 2.6-2.7 1.5-1.1 4.1-1.1 1.7 0 3.1 0.5 1.3 0.6 2.3 1.6 1 1.1 1.5 2.5 0.5 1.4 0.5 3.1v12h-2.9v-11.3q0-2.7-1.4-4.2-1.4-1.6-4-1.6-1.2 0-2.3 0.4-1 0.5-1.8 1.3-0.8 0.8-1.2 1.9-0.5 1.1-0.5 2.5v11h-2.8z"/><path fill-rule="evenodd" d="m113.5 28q-1.4 0-2.7-0.3-1.3-0.4-2.3-1.2-1-0.7-1.7-1.9-0.6-1.1-0.6-2.6v-0.1q0-1.5 0.6-2.7 0.6-1.1 1.7-1.9 1.1-0.8 2.7-1.2 1.5-0.4 3.3-0.4 1.9 0 3.2 0.2 1.4 0.2 2.8 0.6v-0.7q0-2.6-1.6-3.9-1.5-1.3-4.2-1.3-1.7 0-3.1 0.4-1.4 0.4-2.8 1l-0.8-2.4q1.6-0.7 3.2-1.1 1.7-0.5 3.8-0.5 4.1 0 6.2 2.2 2 1.9 2 5.6v11.8h-2.7v-2.9q-1.1 1.3-2.8 2.3-1.7 1-4.2 1zm0.5-2.3q1.4 0.1 2.5-0.3 1.2-0.4 2.1-1.1 0.9-0.7 1.4-1.7 0.5-0.9 0.5-2.1v-1.8q-1.1-0.3-2.5-0.6-1.4-0.3-3.2-0.3-2.7 0-4.2 1.1-1.4 1.1-1.4 2.9v0.1q0 0.9 0.3 1.6 0.4 0.8 1.1 1.2 0.7 0.5 1.6 0.8 0.8 0.3 1.8 0.2z"/><path  d="m129.4 8.3h2.8v3.4q1-1.6 2.6-2.7 1.5-1.1 4.1-1.1 1.7 0 3.1 0.5 1.3 0.6 2.3 1.6 0.9 1.1 1.4 2.5 0.5 1.4 0.5 3.1v12h-2.8v-11.3q0-2.7-1.4-4.2-1.4-1.6-4-1.6-1.2 0-2.3 0.4-1 0.5-1.8 1.3-0.8 0.8-1.2 1.9-0.5 1.1-0.5 2.5v11h-2.8z"/><path  d="m152.5 0.9h3.2v3.2h-3.2zm0.2 7.4h2.8v19.3h-2.8z"/><path fill-rule="evenodd" d="m170.7 28.1q-2 0-3.8-0.8-1.7-0.7-3-2-1.4-1.3-2.1-3.2-0.8-1.8-0.8-4.1v-0.1q0-2.1 0.7-3.9 0.7-1.8 1.9-3.2 1.3-1.3 3-2.1 1.7-0.8 3.7-0.8 2.1 0 3.8 0.8 1.7 0.8 2.8 2.2 1.2 1.4 1.8 3.2 0.6 1.9 0.6 4 0 0.3 0 0.5 0 0.2 0 0.4h-15.4q0.2 1.6 0.8 2.8 0.6 1.2 1.5 2.1 0.9 0.8 2.1 1.2 1.1 0.5 2.4 0.5 2.1 0 3.5-0.8 1.4-0.7 2.6-2l1.8 1.7q-1.4 1.6-3.3 2.6-1.9 1-4.6 1zm5.7-11.2q-0.1-1.3-0.6-2.5-0.4-1.2-1.2-2.1-0.7-0.9-1.8-1.4-1.1-0.6-2.6-0.6-1.2 0-2.3 0.5-1.1 0.5-1.9 1.4-0.9 0.9-1.4 2.1-0.5 1.2-0.7 2.6z"/><path  d="m184.6 0.3h2.9v27.3h-2.9z"/><path  d="m205.9 1.5h18.8v2.7h-15.8v9.3h14.1v2.7h-14.1v11.4h-3z"/><path  d="m229.9 8.3h2.9v5q0.5-1.2 1.3-2.2 0.8-1 1.8-1.7 1-0.7 2.2-1.1 1.2-0.4 2.6-0.3v3.1h-0.2q-1.6 0-3 0.5-1.4 0.6-2.4 1.7-1.1 1.1-1.7 2.8-0.6 1.7-0.6 3.8v7.7h-2.9z"/><path fill-rule="evenodd" d="m253.5 28.1q-1.9 0-3.7-0.8-1.8-0.7-3.1-2-1.3-1.3-2-3.2-0.8-1.8-0.8-4.1v-0.1q0-2.1 0.7-3.9 0.7-1.8 1.9-3.2 1.2-1.3 2.9-2.1 1.7-0.8 3.8-0.8 2.1 0 3.8 0.8 1.7 0.8 2.8 2.2 1.2 1.4 1.8 3.2 0.6 1.9 0.6 4 0 0.3 0 0.5 0 0.2-0.1 0.4h-15.3q0.1 1.6 0.7 2.8 0.7 1.2 1.6 2.1 0.9 0.8 2 1.2 1.2 0.5 2.5 0.5 2 0 3.5-0.8 1.4-0.7 2.6-2l1.8 1.7q-1.5 1.6-3.3 2.6-1.9 1-4.7 1zm5.8-11.2q-0.2-1.3-0.6-2.5-0.4-1.2-1.2-2.1-0.8-0.9-1.9-1.4-1.1-0.6-2.5-0.6-1.3 0-2.4 0.5-1 0.5-1.9 1.4-0.8 0.9-1.3 2.1-0.6 1.2-0.7 2.6z"/><path  d="m267.3 0.9h3.3v3.2h-3.3zm0.2 7.4h2.9v19.3h-2.9z"/><path  d="m4.2 39.8q2.1 0 3.1 1.3 1 1.2 1 3.2v0.5h-1.9v-0.6q0-1.2-0.5-1.9-0.5-0.6-1.6-0.7-1.1 0.1-1.6 0.7-0.5 0.7-0.5 1.9 0 1 0.5 1.8 0.4 0.7 1.1 1.3 0.7 0.7 1.5 1.3 0.7 0.6 1.4 1.3 0.7 0.7 1.1 1.7 0.5 0.9 0.5 2.1 0 2.1-1 3.3-1 1.2-3.1 1.2-2.1 0-3.1-1.2-0.9-1.2-0.9-3.3v-1h1.8v1.1q0 1.3 0.6 1.9 0.5 0.7 1.6 0.7 1 0 1.6-0.7 0.5-0.6 0.5-1.9 0-1-0.5-1.7-0.4-0.7-1.1-1.4-0.7-0.6-1.4-1.2-0.8-0.6-1.5-1.4-0.6-0.7-1.1-1.6-0.5-0.9-0.5-2.2 0-2.1 1-3.3 1-1.2 3-1.2z"/><path fill-rule="evenodd" d="m16.7 44.4q0-2.1 1-3.3 1-1.3 3.1-1.3 2.1 0 3.1 1.3 1.1 1.2 1.1 3.3v9.3q0 2.1-1.1 3.3-1 1.2-3.1 1.2-2.1 0-3.1-1.2-1-1.2-1-3.3zm2 9.4q0 1.3 0.5 2 0.5 0.6 1.6 0.6 1.1 0 1.6-0.6 0.6-0.7 0.6-2v-9.5q0-1.2-0.6-1.9-0.5-0.7-1.6-0.7-1.1 0-1.6 0.7-0.5 0.7-0.5 1.9z"/><path  d="m39.9 48.4v1.8h-4.2v7.9h-2v-18.1h7.2v1.8h-5.2v6.6z"/><path  d="m51.9 58.1v-16.3h-3.3v-1.8h8.6v1.8h-3.3v16.3z"/><path  d="m70.2 58.1h-2.8l-2.5-18.1h2l2.1 15.4 2-15.4h2l2 15.4 2-15.4h1.8l-2.5 18.1h-2.6l-1.7-12.3z"/><path fill-rule="evenodd" d="m89.3 54.4l-0.7 3.7h-1.9l3.5-18.1h2.9l3.4 18.1h-2l-0.7-3.7zm0.3-1.7h4l-2-10.4z"/><path fill-rule="evenodd" d="m109 40q2.1 0 3 1.1 1 1 1 3v1.5q0 1.5-0.6 2.4-0.5 0.9-1.7 1.3 1.3 0.4 1.8 1.3 0.5 1 0.5 2.5v2.8q0 0.6 0 1.1 0.1 0.6 0.4 1.1h-2.1q-0.2-0.4-0.2-0.9-0.1-0.4-0.1-1.3v-2.9q0-1.5-0.7-2.1-0.7-0.6-1.9-0.6h-1.5v7.8h-2v-18.1zm-0.5 8.5q1.2 0 1.9-0.5 0.7-0.5 0.7-2v-1.7q0-1.2-0.5-1.8-0.5-0.7-1.6-0.7h-2v6.7z"/><path  d="m128.3 48v1.8h-4.4v6.4h5.4v1.9h-7.4v-18.1h7.4v1.8h-5.4v6.2z"/><path fill-rule="evenodd" d="m153 40q2.1 0 3.1 1.2 1 1.2 1 3.3v9.1q0 2.1-1 3.3-1 1.2-3.1 1.2h-4.2v-18.1zm0 16.2q1 0 1.6-0.6 0.5-0.7 0.5-1.9v-9.3q0-1.2-0.5-1.9-0.6-0.7-1.6-0.7h-2.2v14.4z"/><path  d="m172.2 48v1.8h-4.4v6.4h5.5v1.9h-7.5v-18.1h7.5v1.8h-5.5v6.2z"/><path  d="m183.4 40l3 15.7 2.9-15.7h1.9l-3.4 18.1h-3l-3.4-18.1z"/><path  d="m205.9 48v1.8h-4.4v6.4h5.5v1.9h-7.5v-18.1h7.5v1.8h-5.5v6.2z"/><path  d="m215.6 58.1v-18.1h2v16.2h5.2v1.9z"/><path fill-rule="evenodd" d="m231 44.4q0-2.1 1-3.3 1-1.3 3.1-1.3 2.1 0 3.1 1.3 1 1.2 1 3.3v9.3q0 2.1-1 3.3-1 1.2-3.1 1.2-2.1 0-3.1-1.2-1-1.2-1-3.3zm1.9 9.4q0 1.3 0.6 2 0.5 0.6 1.6 0.6 1.1 0 1.6-0.6 0.5-0.7 0.5-2v-9.5q0-1.2-0.5-1.9-0.5-0.7-1.6-0.7-1.1 0-1.6 0.7-0.6 0.7-0.6 1.9z"/><path fill-rule="evenodd" d="m251.9 40q2.2 0 3.1 1.2 1 1.2 1 3.2v2.2q0 2.1-1.1 3.2-1 1.1-3.1 1.1h-1.8v7.2h-2v-18.1zm-0.2 9.1q1.1 0 1.7-0.5 0.5-0.6 0.5-1.9v-2.4q0-1.2-0.5-1.8-0.4-0.7-1.5-0.7h-2v7.3z"/><path  d="m270.8 48v1.8h-4.4v6.4h5.4v1.9h-7.5v-18.1h7.5v1.8h-5.4v6.2z"/><path fill-rule="evenodd" d="m284.5 40q2.1 0 3 1.1 1 1 1 3v1.5q0 1.5-0.6 2.4-0.5 0.9-1.7 1.3 1.3 0.4 1.8 1.3 0.5 1 0.5 2.5v2.8q0 0.6 0.1 1.1 0 0.6 0.3 1.1h-2.1q-0.1-0.4-0.2-0.9-0.1-0.4-0.1-1.3v-2.9q0-1.5-0.7-2.1-0.7-0.6-1.9-0.6h-1.4v7.8h-2.1v-18.1zm-0.5 8.5q1.2 0 1.9-0.5 0.7-0.5 0.7-2v-1.7q0-1.2-0.5-1.8-0.5-0.7-1.6-0.7h-2v6.7z"/></svg>