<svg version="1.2" xmlns="http://www.w3.org/2000/svg" viewBox="0 0 252 28" width="252" height="28"><style></style><path  d="m-0.1 1.5h2.7l16.5 20.9v-20.9h2.9v26.1h-2.4l-16.9-21.4v21.4h-2.8z"/><path fill-rule="evenodd" d="m34.7 28q-1.4 0-2.7-0.3-1.3-0.4-2.3-1.2-1-0.7-1.7-1.9-0.6-1.1-0.6-2.6v-0.1q0-1.5 0.6-2.7 0.6-1.1 1.7-1.9 1.1-0.8 2.7-1.2 1.5-0.4 3.3-0.4 1.9 0 3.3 0.2 1.3 0.2 2.7 0.6v-0.7q0-2.6-1.6-3.9-1.5-1.3-4.2-1.3-1.7 0-3.1 0.4-1.4 0.4-2.8 1l-0.8-2.4q1.6-0.7 3.2-1.1 1.7-0.5 3.8-0.5 4.1 0 6.2 2.2 2 1.9 2 5.6v11.8h-2.7v-2.9q-1.1 1.3-2.8 2.3-1.7 1-4.2 1zm0.5-2.3q1.4 0.1 2.5-0.3 1.2-0.4 2.1-1.1 0.9-0.7 1.4-1.7 0.5-0.9 0.5-2.1v-1.8q-1.1-0.3-2.5-0.6-1.4-0.3-3.2-0.3-2.7 0-4.2 1.1-1.4 1.1-1.4 2.9v0.1q0 0.9 0.4 1.6 0.3 0.8 1 1.2 0.7 0.5 1.6 0.8 0.8 0.3 1.8 0.2z"/><path  d="m57 28q-1.1 0-2.1-0.3-1.1-0.3-1.8-1-0.7-0.7-1.1-1.7-0.4-1-0.4-2.5v-11.7h-2.7v-2.5h2.7v-5.8h2.9v5.8h6.1v2.5h-6.1v11.3q0 1.8 0.8 2.5 0.9 0.7 2.4 0.7 0.7 0 1.4-0.1 0.6-0.2 1.4-0.5v2.4q-0.8 0.5-1.6 0.6-0.8 0.3-1.9 0.3z"/><path  d="m65.7 0.3h2.8v11.4q1-1.6 2.6-2.7 1.5-1.1 4.1-1.1 1.7 0 3.1 0.5 1.3 0.6 2.3 1.6 1 1.1 1.5 2.5 0.5 1.4 0.5 3.1v12h-2.9v-11.3q0-2.7-1.4-4.2-1.4-1.6-4-1.6-1.2 0-2.3 0.4-1 0.5-1.8 1.3-0.8 0.8-1.2 1.9-0.5 1.1-0.5 2.5v11h-2.8z"/><path fill-rule="evenodd" d="m94.5 28q-1.4 0-2.7-0.3-1.3-0.4-2.3-1.2-1-0.7-1.7-1.9-0.6-1.1-0.6-2.6v-0.1q0-1.5 0.6-2.7 0.6-1.1 1.7-1.9 1.1-0.8 2.7-1.2 1.5-0.4 3.3-0.4 1.9 0 3.2 0.2 1.4 0.2 2.8 0.6v-0.7q0-2.6-1.6-3.9-1.5-1.3-4.2-1.3-1.7 0-3.1 0.4-1.4 0.4-2.8 1l-0.8-2.4q1.6-0.7 3.2-1.1 1.7-0.5 3.8-0.5 4.1 0 6.2 2.2 2 1.9 2 5.6v11.8h-2.7v-2.9q-1.1 1.3-2.8 2.3-1.7 1-4.2 1zm0.5-2.3q1.4 0.1 2.5-0.3 1.2-0.4 2.1-1.1 0.9-0.7 1.4-1.7 0.5-0.9 0.5-2.1v-1.8q-1.1-0.3-2.5-0.6-1.4-0.3-3.2-0.3-2.7 0-4.2 1.1-1.4 1.1-1.4 2.9v0.1q0 0.9 0.3 1.6 0.4 0.8 1.1 1.2 0.7 0.5 1.6 0.8 0.8 0.3 1.8 0.2z"/><path  d="m110.4 8.3h2.8v3.4q1-1.6 2.6-2.7 1.5-1.1 4.1-1.1 1.7 0 3.1 0.5 1.3 0.6 2.3 1.6 0.9 1.1 1.4 2.5 0.5 1.4 0.5 3.1v12h-2.8v-11.3q0-2.7-1.4-4.2-1.4-1.6-4-1.6-1.2 0-2.3 0.4-1 0.5-1.8 1.3-0.8 0.8-1.2 1.9-0.5 1.1-0.5 2.5v11h-2.8z"/><path  d="m133.5 0.9h3.2v3.2h-3.2zm0.2 7.4h2.8v19.3h-2.8z"/><path fill-rule="evenodd" d="m151.7 28.1q-2 0-3.8-0.8-1.7-0.7-3-2-1.4-1.3-2.1-3.2-0.8-1.8-0.8-4.1v-0.1q0-2.1 0.7-3.9 0.7-1.8 1.9-3.2 1.3-1.3 3-2.1 1.7-0.8 3.7-0.8 2.1 0 3.8 0.8 1.7 0.8 2.8 2.2 1.2 1.4 1.8 3.2 0.6 1.9 0.6 4 0 0.3 0 0.5 0 0.2 0 0.4h-15.4q0.2 1.6 0.8 2.8 0.6 1.2 1.5 2.1 0.9 0.8 2.1 1.2 1.1 0.5 2.4 0.5 2.1 0 3.5-0.8 1.4-0.7 2.6-2l1.8 1.7q-1.4 1.6-3.3 2.6-1.9 1-4.6 1zm5.7-11.2q-0.1-1.3-0.6-2.5-0.4-1.2-1.2-2.1-0.7-0.9-1.8-1.4-1.1-0.6-2.6-0.6-1.2 0-2.3 0.5-1.1 0.5-1.9 1.4-0.9 0.9-1.4 2.1-0.5 1.2-0.7 2.6z"/><path  d="m165.6 0.3h2.9v27.3h-2.9z"/><path  d="m186.9 1.5h18.8v2.7h-15.8v9.3h14.1v2.7h-14.1v11.4h-3z"/><path  d="m210.9 8.3h2.9v5q0.5-1.2 1.3-2.2 0.8-1 1.8-1.7 1-0.7 2.2-1.1 1.2-0.4 2.6-0.3v3.1h-0.2q-1.6 0-3 0.5-1.4 0.6-2.4 1.7-1.1 1.1-1.7 2.8-0.6 1.7-0.6 3.8v7.7h-2.9z"/><path fill-rule="evenodd" d="m234.5 28.1q-1.9 0-3.7-0.8-1.8-0.7-3.1-2-1.3-1.3-2-3.2-0.8-1.8-0.8-4.1v-0.1q0-2.1 0.7-3.9 0.7-1.8 1.9-3.2 1.2-1.3 2.9-2.1 1.7-0.8 3.8-0.8 2.1 0 3.8 0.8 1.7 0.8 2.8 2.2 1.2 1.4 1.8 3.2 0.6 1.9 0.6 4 0 0.3 0 0.5 0 0.2-0.1 0.4h-15.3q0.1 1.6 0.7 2.8 0.7 1.2 1.6 2.1 0.9 0.8 2 1.2 1.2 0.5 2.5 0.5 2 0 3.5-0.8 1.4-0.7 2.6-2l1.8 1.7q-1.5 1.6-3.3 2.6-1.9 1-4.7 1zm5.8-11.2q-0.2-1.3-0.6-2.5-0.4-1.2-1.2-2.1-0.8-0.9-1.9-1.4-1.1-0.6-2.5-0.6-1.3 0-2.4 0.5-1 0.5-1.9 1.4-0.8 0.9-1.3 2.1-0.6 1.2-0.7 2.6z"/><path  d="m248.3 0.9h3.3v3.2h-3.3zm0.2 7.4h2.9v19.3h-2.9z"/></svg>