<svg version="1.2" xmlns="http://www.w3.org/2000/svg" viewBox="0 0 271 169" width="271" height="169"><defs><clipPath clipPathUnits="userSpaceOnUse" id="cp1"><path d="m-0.24-0.11h271.5v169.5h-271.5z"/></clipPath></defs><style>.a{fill:#0097b2}.b{fill:#0cc0df}</style><g clip-path="url(#cp1)"><path class="a" d="m72.1 169.1c-9.7 0-19.2-1.9-28.1-5.7-8.6-3.6-16.4-8.8-23-15.4-6.6-6.7-11.8-14.4-15.5-23-3.8-8.9-5.7-18.4-5.7-28.2 0-9.7 1.9-19.2 5.7-28.1 3.7-8.6 8.9-16.3 15.5-23 6.6-6.6 14.4-11.8 23-15.5 8.9-3.7 18.4-5.6 28.1-5.6 8.6 0 17 1.4 25.1 4.4 7.7 2.9 14.8 7 21.2 12.3 12.8 10.7 21.5 25.5 24.7 41.7 0.5 2.8 1.1 5.1 1.8 7.1 7.7 23.3 29.4 39 54 39 31.4 0 56.9-25.5 56.9-56.9 0-31.4-25.5-56.9-56.9-56.9-15.8 0-30.4 6.3-41.3 17.7-2.9 3.1-7.8 3.3-10.9 0.3-3.1-2.9-3.2-7.8-0.3-10.8 6.7-7.1 14.6-12.6 23.5-16.5 9.1-4.1 18.9-6.1 29-6.1 9.8 0 19.2 1.9 28.1 5.7 8.7 3.6 16.4 8.8 23 15.5 6.7 6.6 11.9 14.3 15.5 22.9 3.8 9 5.7 18.4 5.7 28.2 0 9.7-1.9 19.2-5.7 28.1-3.6 8.6-8.8 16.4-15.5 23-6.6 6.6-14.3 11.8-23 15.5-8.9 3.8-18.3 5.7-28.1 5.7-15.5 0-30.3-4.9-42.7-14-6-4.4-11.3-9.7-15.7-15.6-4.4-6.1-7.9-12.8-10.2-19.9-0.9-2.7-1.7-5.7-2.3-9-5.2-26.7-28.7-46.1-55.9-46.1-31.4 0-56.9 25.6-56.9 56.9 0 31.4 25.5 56.9 56.9 56.9 15.8 0 30.5-6.3 41.3-17.7 2.9-3.1 7.8-3.2 10.9-0.3 3.1 2.9 3.2 7.8 0.3 10.9-6.7 7-14.6 12.6-23.4 16.5-9.2 4-19 6-29.1 6z"/></g><path fill-rule="evenodd" class="b" d="m104.5 130.5c8.9-8.9 13.8-20.8 13.8-33.3 0-9.5-2.8-18.7-8.1-26.5-5.2-7.7-12.5-13.6-21-17.1-3.9-1.6-8.4 0.3-10 4.2-1.7 3.9 0.2 8.4 4.1 10 11.9 5 19.6 16.5 19.6 29.4 0 17.4-14.2 31.7-31.7 31.7-8.6 0-16.7-3.4-22.7-9.6-3-3-7.8-3.1-10.9-0.1-3 2.9-3.1 7.8-0.1 10.9 4.3 4.4 9.4 7.9 15.1 10.3 5.9 2.6 12.1 3.9 18.6 3.9 12.6 0 24.4-4.9 33.3-13.8zm96.7-16.3c0.6-4.2-2.4-8.1-6.6-8.6-15.8-2-27.7-15.5-27.7-31.5 0-17.5 14.2-31.7 31.7-31.7 9.8 0 18.9 4.4 24.9 12.1 2.7 3.3 7.5 3.9 10.8 1.2 3.4-2.6 3.9-7.4 1.3-10.8-9-11.3-22.5-17.9-37-17.9-12.6 0-24.4 4.9-33.3 13.8-8.9 8.9-13.8 20.7-13.8 33.3 0 23.7 17.7 43.8 41.2 46.8q0.4 0 0.9 0c3.8 0 7.2-2.8 7.6-6.7z"/></svg>