<svg version="1.2" xmlns="http://www.w3.org/2000/svg" viewBox="0 0 199 123" width="199" height="123"><defs><clipPath clipPathUnits="userSpaceOnUse" id="cp1"><path d="m0.04-0.21h198.75v123.75h-198.75z"/></clipPath></defs><style>.a{fill:#0097b2}</style><g clip-path="url(#cp1)"><path fill-rule="evenodd" class="a" d="m0.1 61.5c0-34.1 27.6-61.7 61.7-61.7 11.7 0 22.6 3.3 31.9 8.9-5.3 4.4-9.9 9.6-13.7 15.4-5.5-2.7-11.7-4.2-18.2-4.2-23 0-41.7 18.6-41.7 41.6 0 23 18.7 41.6 41.7 41.6 23 0 41.6-18.6 41.6-41.6 0-18.7 15.2-33.9 33.8-33.9 18.7 0 33.9 15.2 33.9 33.9 0 18.7-15.2 33.9-33.9 33.9-5.1 0-9.9-1.2-14.3-3.2 3-6.1 5.2-12.6 6.3-19.5 2.3 1.6 5.1 2.6 8 2.6 7.6 0 13.8-6.2 13.8-13.8 0-7.6-6.2-13.8-13.8-13.8-7.6 0-13.7 6.2-13.7 13.8 0 34.1-27.7 61.7-61.7 61.7-34.1 0-61.7-27.6-61.7-61.7zm105.2 52.8c5.3-4.4 9.9-9.6 13.7-15.4 5.5 2.7 11.7 4.2 18.2 4.2 23 0 41.7-18.6 41.7-41.6 0-23-18.7-41.6-41.7-41.6-23 0-41.6 18.6-41.6 41.6 0 18.7-15.2 33.9-33.8 33.9-18.7 0-33.9-15.2-33.9-33.9 0-18.7 15.2-33.9 33.9-33.9 5.1 0 9.9 1.2 14.3 3.2-3 6.1-5.2 12.6-6.3 19.5-2.3-1.6-5.1-2.6-8-2.6-7.6 0-13.8 6.2-13.8 13.8 0 7.6 6.2 13.8 13.8 13.8 7.6 0 13.7-6.2 13.7-13.8 0-34.1 27.7-61.7 61.7-61.7 34.1 0 61.7 27.6 61.7 61.7 0 34.1-27.6 61.7-61.7 61.7-11.7 0-22.6-3.3-31.9-8.9z"/></g></svg>