<svg version="1.2" xmlns="http://www.w3.org/2000/svg" viewBox="0 0 180 162" width="180" height="162"><defs><clipPath clipPathUnits="userSpaceOnUse" id="cp1"><path d="m14.09-0.4h150.75v93.75h-150.75z"/></clipPath></defs><style>.a{fill:#0097b2}.b{fill:#0cc0df}</style><g clip-path="url(#cp1)"><path class="a" d="m54.3 93.6c-5.4 0-10.7-1-15.6-3.1-4.8-2.1-9.1-5-12.8-8.6-3.7-3.7-6.6-8-8.6-12.8-2.1-5-3.2-10.2-3.2-15.6 0-5.5 1.1-10.7 3.2-15.7 2-4.8 4.9-9.1 8.6-12.7 3.7-3.7 8-6.6 12.8-8.6 4.9-2.1 10.2-3.2 15.6-3.2 4.8 0 9.4 0.8 13.9 2.5 4.3 1.6 8.3 3.9 11.8 6.8 7.1 5.9 12 14.2 13.7 23.2 0.3 1.5 0.6 2.8 1 3.9 4.3 13 16.4 21.7 30 21.7 17.5 0 31.6-14.2 31.6-31.6 0-17.5-14.1-31.7-31.6-31.7-8.7 0-16.9 3.5-22.9 9.9-1.6 1.7-4.4 1.8-6.1 0.2-1.7-1.6-1.8-4.4-0.1-6.1 3.7-3.9 8.1-7 13-9.1 5.1-2.3 10.5-3.4 16.1-3.4 5.4 0 10.7 1.1 15.7 3.2 4.7 2 9 4.9 12.7 8.6 3.7 3.7 6.6 7.9 8.6 12.7 2.1 5 3.2 10.2 3.2 15.7 0 5.4-1.1 10.6-3.2 15.6-2 4.8-4.9 9.1-8.6 12.8-3.7 3.6-8 6.5-12.7 8.6-5 2.1-10.3 3.1-15.7 3.1-8.6 0-16.8-2.7-23.7-7.7-3.3-2.5-6.3-5.4-8.7-8.7-2.5-3.4-4.4-7.1-5.7-11.1-0.5-1.5-0.9-3.1-1.3-5-2.8-14.8-15.9-25.6-31-25.6-17.4 0-31.6 14.2-31.6 31.7 0 17.4 14.2 31.6 31.6 31.6 8.8 0 16.9-3.5 22.9-9.9 1.7-1.7 4.4-1.8 6.1-0.2 1.7 1.7 1.8 4.4 0.1 6.1-3.7 3.9-8.1 7-13 9.1-5.1 2.3-10.5 3.4-16.1 3.4z"/></g><path fill-rule="evenodd" class="b" d="m72.3 72.1c4.9-4.9 7.6-11.5 7.6-18.5 0-5.2-1.5-10.3-4.5-14.7-2.9-4.2-6.9-7.5-11.6-9.5-2.2-0.9-4.7 0.2-5.6 2.4-0.9 2.1 0.1 4.6 2.3 5.5 6.6 2.8 10.9 9.2 10.9 16.3 0 9.8-7.9 17.7-17.6 17.7-4.8 0-9.3-1.9-12.6-5.4-1.7-1.6-4.4-1.7-6.1 0-1.7 1.6-1.7 4.3-0.1 6 2.5 2.5 5.3 4.4 8.4 5.8 3.3 1.4 6.8 2.1 10.4 2.1 7 0 13.5-2.7 18.5-7.7zm53.7-9c0.3-2.3-1.3-4.5-3.7-4.8-8.7-1.1-15.4-8.6-15.4-17.5 0-9.7 8-17.6 17.7-17.6 5.4 0 10.4 2.5 13.8 6.7 1.5 1.9 4.2 2.2 6 0.7 1.9-1.4 2.2-4.1 0.7-6-5-6.3-12.5-9.9-20.5-9.9-7 0-13.6 2.7-18.5 7.6-5 5-7.7 11.6-7.7 18.5 0 13.2 9.8 24.3 22.9 26q0.2 0 0.5 0c2.1 0 4-1.5 4.2-3.7z"/><path fill-rule="evenodd" class="a" d="m4.3 112q2.7 0 3.8 1.3 1.2 1.3 1.2 3.9v1.8q0 1.9-0.7 3.1-0.6 1.1-2.1 1.6 1.6 0.4 2.2 1.7 0.7 1.2 0.7 3v3.5q0 0.8 0 1.5 0.1 0.7 0.4 1.2h-2.5q-0.3-0.4-0.4-1-0.1-0.6-0.1-1.7v-3.6q0-1.9-0.8-2.6-0.9-0.7-2.5-0.7h-1.7v9.6h-2.5v-22.6zm-0.7 10.7q1.5 0 2.4-0.7 0.8-0.6 0.8-2.4v-2.2q0-1.5-0.6-2.3-0.6-0.8-2-0.8h-2.5v8.4z"/><path class="a" d="m21.5 122v2.3h-5.5v8h6.8v2.3h-9.4v-22.6h9.4v2.3h-6.8v7.7z"/><path class="a" d="m28.4 112l3.7 19.7 3.7-19.7h2.3l-4.2 22.6h-3.8l-4.2-22.6z"/><path class="a" d="m49.5 122v2.3h-5.5v8h6.8v2.3h-9.3v-22.6h9.3v2.3h-6.8v7.7z"/><path fill-rule="evenodd" class="a" d="m59.6 112q2.7 0 3.9 1.3 1.2 1.3 1.2 3.9v1.8q0 1.9-0.7 3.1-0.7 1.1-2.1 1.6 1.5 0.4 2.2 1.7 0.6 1.2 0.6 3v3.5q0 0.8 0.1 1.5 0 0.7 0.3 1.2h-2.5q-0.2-0.4-0.3-1-0.1-0.6-0.1-1.7v-3.6q0-1.9-0.9-2.6-0.8-0.7-2.4-0.7h-1.8v9.6h-2.5v-22.6zm-0.7 10.7q1.5 0 2.4-0.7 0.8-0.6 0.8-2.4v-2.2q0-1.5-0.6-2.3-0.6-0.8-2-0.8h-2.4v8.4z"/><path class="a" d="m73.5 111.8q2.6 0 3.8 1.5 1.3 1.6 1.3 4.1v0.7h-2.4v-0.8q0-1.5-0.6-2.4-0.7-0.8-2-0.8-1.4 0-2 0.8-0.6 0.9-0.6 2.4 0 1.2 0.6 2.2 0.5 0.9 1.4 1.7 0.8 0.8 1.8 1.6 1 0.7 1.8 1.6 0.9 0.9 1.4 2.1 0.6 1.1 0.6 2.7 0 2.6-1.2 4.1-1.3 1.6-3.9 1.6-2.6 0-3.9-1.6-1.2-1.5-1.2-4.1v-1.3h2.4v1.4q0 1.6 0.6 2.4 0.7 0.9 2 0.9 1.4 0 2-0.9 0.7-0.8 0.7-2.4 0-1.2-0.6-2.2-0.6-0.9-1.4-1.7-0.8-0.8-1.8-1.5-1-0.8-1.8-1.7-0.9-0.9-1.4-2-0.6-1.2-0.6-2.8 0-2.6 1.2-4.1 1.3-1.5 3.8-1.5z"/><path class="a" d="m90.3 122v2.3h-5.5v8h6.8v2.3h-9.3v-22.6h9.3v2.3h-6.8v7.7z"/><path class="a" d="m95.2 122.2h6.2v2.2h-6.2z"/><path fill-rule="evenodd" class="a" d="m107.9 130.1l-0.9 4.5h-2.3l4.3-22.6h3.7l4.3 22.6h-2.5l-0.9-4.5zm0.4-2.2h5l-2.6-13z"/><path class="a" d="m120.4 122.2h6.1v2.2h-6.1z"/><path class="a" d="m135.2 111.8q2.6 0 3.8 1.5 1.3 1.6 1.3 4.1v0.7h-2.4v-0.8q0-1.5-0.6-2.4-0.7-0.8-2-0.8-1.4 0-2 0.8-0.6 0.9-0.6 2.4 0 1.2 0.6 2.2 0.5 0.9 1.4 1.7 0.8 0.8 1.8 1.6 1 0.7 1.8 1.6 0.9 0.9 1.4 2.1 0.6 1.1 0.6 2.7 0 2.6-1.2 4.1-1.3 1.6-3.9 1.6-2.6 0-3.9-1.6-1.2-1.5-1.2-4.1v-1.3h2.4v1.4q0 1.6 0.6 2.4 0.7 0.9 2 0.9 1.4 0 2-0.9 0.7-0.8 0.7-2.4 0-1.2-0.6-2.2-0.6-0.9-1.4-1.7-0.8-0.8-1.8-1.5-1-0.8-1.8-1.7-0.9-0.9-1.4-2-0.6-1.2-0.6-2.8 0-2.6 1.2-4.1 1.3-1.5 3.8-1.5z"/><path class="a" d="m147.2 134.6v-20.3h-4.1v-2.3h10.8v2.3h-4.1v20.3z"/><path class="a" d="m165.2 122v2.3h-5.5v8h6.8v2.3h-9.4v-22.6h9.4v2.3h-6.8v7.7z"/><path fill-rule="evenodd" class="a" d="m175.2 112q2.7 0 3.8 1.5 1.2 1.4 1.2 4v2.7q0 2.8-1.2 4.1-1.3 1.4-4 1.4h-2.3v8.9h-2.5v-22.6zm-0.2 11.4q1.5 0 2.1-0.6 0.7-0.7 0.7-2.4v-3q0-1.5-0.6-2.3-0.6-0.8-2-0.8h-2.4v9.1z"/><path fill-rule="evenodd" class="a" d="m173.5 162.3q-2.7 0-3.9-1.4-1.2-1.3-1.2-3.8v-1.9q0-1.8 0.7-3 0.7-1.2 2.1-1.6-1.5-0.5-2.2-1.7-0.6-1.2-0.6-3v-3.5q0-0.8-0.1-1.5 0-0.7-0.4-1.3h2.6q0.2 0.5 0.3 1.1 0.1 0.6 0.1 1.7v3.5q0 1.9 0.9 2.7 0.8 0.7 2.4 0.7h1.8v-9.7h2.5v22.7zm0.6-10.7q-1.5 0-2.3 0.6-0.9 0.6-0.9 2.5v2.2q0 1.5 0.6 2.3 0.6 0.8 2.1 0.8h2.4v-8.4z"/><path class="a" d="m156.5 152.2v-2.2h5.5v-8.1h-6.8v-2.3h9.3v22.7h-9.3v-2.3h6.8v-7.8z"/><path class="a" d="m149.7 162.3l-3.7-19.7-3.7 19.7h-2.3l4.2-22.7h3.8l4.2 22.7z"/><path class="a" d="m128.7 152.2v-2.2h5.6v-8.1h-6.8v-2.3h9.3v22.7h-9.3v-2.3h6.8v-7.8z"/><path fill-rule="evenodd" class="a" d="m118.8 162.3q-2.7 0-3.8-1.4-1.2-1.3-1.2-3.8v-1.9q0-1.8 0.7-3 0.6-1.2 2.1-1.6-1.5-0.5-2.2-1.7-0.6-1.2-0.6-3v-3.5q0-0.8-0.1-1.5-0.1-0.7-0.4-1.3h2.6q0.2 0.5 0.3 1.1 0.1 0.6 0.1 1.7v3.5q0 1.9 0.8 2.7 0.9 0.7 2.5 0.7h1.8v-9.7h2.5v22.7zm0.6-10.7q-1.5 0-2.3 0.6-0.9 0.6-0.9 2.5v2.2q0 1.5 0.6 2.3 0.6 0.8 2 0.8h2.5v-8.4z"/><path class="a" d="m105.1 162.5q-2.6 0-3.8-1.6-1.2-1.5-1.2-4.1v-0.6h2.4v0.8q0 1.5 0.6 2.3 0.6 0.9 1.9 0.9 1.4 0 2-0.9 0.6-0.8 0.6-2.3 0-1.3-0.5-2.2-0.6-1-1.4-1.7-0.9-0.8-1.9-1.6-0.9-0.7-1.8-1.7-0.8-0.9-1.4-2-0.6-1.1-0.6-2.7 0-2.6 1.3-4.1 1.2-1.6 3.9-1.6 2.6 0 3.8 1.6 1.2 1.5 1.2 4.1v1.3h-2.3v-1.5q0-1.5-0.7-2.3-0.6-0.9-2-0.9-1.3 0-2 0.9-0.6 0.8-0.6 2.3 0 1.3 0.5 2.2 0.6 0.9 1.4 1.7 0.9 0.8 1.8 1.6 1 0.7 1.9 1.7 0.8 0.9 1.4 2 0.5 1.1 0.5 2.7 0 2.6-1.2 4.2-1.2 1.5-3.8 1.5z"/><path class="a" d="m88.5 152.2v-2.2h5.5v-8.1h-6.7v-2.3h9.3v22.7h-9.3v-2.3h6.7v-7.8z"/><path class="a" d="m83.7 152.1h-6.1v-2.3h6.1z"/><path fill-rule="evenodd" class="a" d="m71.2 144.2l0.9-4.6h2.3l-4.3 22.7h-3.6l-4.4-22.7h2.5l0.9 4.6zm-0.3 2.2h-5l2.5 13z"/><path class="a" d="m59 152.1h-6.2v-2.3h6.2z"/><path class="a" d="m44.3 162.5q-2.6 0-3.8-1.6-1.3-1.5-1.3-4.1v-0.6h2.4v0.8q0 1.5 0.7 2.3 0.6 0.9 1.9 0.9 1.4 0 2-0.9 0.6-0.8 0.6-2.3 0-1.3-0.6-2.2-0.5-1-1.4-1.7-0.8-0.8-1.8-1.6-1-0.7-1.8-1.7-0.9-0.9-1.4-2-0.6-1.1-0.6-2.7 0-2.6 1.3-4.1 1.2-1.6 3.8-1.6 2.6 0 3.9 1.6 1.2 1.5 1.2 4.1v1.3h-2.4v-1.5q0-1.5-0.6-2.3-0.7-0.9-2-0.9-1.4 0-2 0.9-0.7 0.8-0.7 2.3 0 1.3 0.6 2.2 0.6 0.9 1.4 1.7 0.8 0.8 1.8 1.6 1 0.7 1.8 1.7 0.9 0.9 1.4 2 0.6 1.1 0.6 2.7 0 2.6-1.2 4.2-1.3 1.5-3.8 1.5z"/><path class="a" d="m32.5 139.6v20.4h4.1v2.3h-10.8v-2.3h4.2v-20.4z"/><path class="a" d="m14.8 152.2v-2.2h5.5v-8.1h-6.8v-2.3h9.3v22.7h-9.3v-2.3h6.8v-7.8z"/><path fill-rule="evenodd" class="a" d="m5 162.3q-2.7 0-3.9-1.5-1.2-1.5-1.2-4.1v-2.7q0-2.7 1.3-4.1 1.2-1.4 3.9-1.3h2.3v-9h2.5v22.7zm0.2-11.5q-1.4 0-2.1 0.7-0.7 0.7-0.7 2.3v3.1q0 1.5 0.6 2.3 0.6 0.8 2 0.8h2.4v-9.2z"/></svg>