<svg version="1.2" xmlns="http://www.w3.org/2000/svg" viewBox="0 0 201 139" width="201" height="139"><defs><clipPath clipPathUnits="userSpaceOnUse" id="cp1"><path d="m33.95 0.39h135.75v84h-135.75z"/></clipPath></defs><style>.a{fill:#0097b2}</style><g clip-path="url(#cp1)"><path fill-rule="evenodd" class="a" d="m76.1 84.7c23.3 0 42.2-18.9 42.2-42.2 0-5.2 4.2-9.4 9.4-9.4 5.2 0 9.4 4.2 9.4 9.4 0 5.2-4.2 9.4-9.4 9.4-2.1 0-4-0.6-5.5-1.7-0.8 4.7-2.3 9.2-4.3 13.3 2.9 1.4 6.3 2.2 9.8 2.2 12.7 0 23.1-10.4 23.1-23.2 0-12.7-10.4-23.1-23.1-23.1-12.8 0-23.2 10.4-23.2 23.1 0 15.7-12.7 28.5-28.4 28.5-15.7 0-28.4-12.8-28.4-28.5 0-15.7 12.7-28.4 28.4-28.4 4.5 0 8.7 1 12.5 2.9 2.5-4 5.7-7.5 9.4-10.5-6.4-3.9-13.9-6.1-21.9-6.1-23.3 0-42.1 18.9-42.1 42.1 0 23.3 18.8 42.2 42.1 42.2zm51.6 0c23.2 0 42.1-18.9 42.1-42.2 0-23.2-18.9-42.1-42.1-42.1-23.3 0-42.2 18.9-42.2 42.1 0 5.2-4.2 9.4-9.4 9.4-5.2 0-9.4-4.2-9.4-9.4 0-5.2 4.2-9.4 9.4-9.4 2 0 3.9 0.7 5.5 1.8 0.7-4.7 2.2-9.2 4.3-13.3-3-1.4-6.3-2.2-9.8-2.2-12.8 0-23.1 10.4-23.1 23.1 0 12.8 10.3 23.2 23.1 23.2 12.8 0 23.1-10.4 23.1-23.2 0-15.7 12.8-28.4 28.5-28.4 15.7 0 28.4 12.7 28.4 28.4 0 15.7-12.7 28.5-28.4 28.5-4.5 0-8.7-1.1-12.5-2.9-2.6 4-5.7 7.5-9.4 10.5 6.4 3.9 13.9 6.1 21.9 6.1z"/></g><path fill-rule="evenodd" class="a" d="m8.4 88.8q2.7 0 3.8 1.4 1.2 1.3 1.2 3.8v1.9q0 1.8-0.7 3-0.6 1.2-2.1 1.6 1.6 0.5 2.2 1.7 0.7 1.2 0.7 3v3.5q0 0.8 0 1.5 0.1 0.7 0.4 1.3h-2.6q-0.2-0.5-0.3-1.1-0.1-0.6-0.1-1.7v-3.5q0-1.9-0.8-2.7-0.9-0.7-2.5-0.7h-1.7v9.7h-2.6v-22.7zm-0.6 10.7q1.5 0 2.3-0.6 0.9-0.6 0.9-2.5v-2.2q0-1.5-0.6-2.3-0.6-0.8-2-0.8h-2.5v8.4z"/><path class="a" d="m26.8 98.9v2.2h-5.5v8.1h6.8v2.3h-9.3v-22.7h9.3v2.3h-6.8v7.8z"/><path class="a" d="m35.1 88.8l3.7 19.7 3.6-19.7h2.3l-4.2 22.7h-3.7l-4.3-22.7z"/><path class="a" d="m57.5 98.9v2.2h-5.6v8.1h6.8v2.3h-9.3v-22.7h9.3v2.3h-6.8v7.8z"/><path fill-rule="evenodd" class="a" d="m68.8 88.8q2.7 0 3.9 1.4 1.2 1.3 1.2 3.8v1.9q0 1.8-0.7 3-0.7 1.2-2.1 1.6 1.5 0.5 2.1 1.7 0.7 1.2 0.7 3v3.5q0 0.8 0.1 1.5 0 0.7 0.4 1.3h-2.6q-0.2-0.5-0.3-1.1-0.1-0.6-0.1-1.7v-3.5q0-1.9-0.9-2.7-0.8-0.7-2.4-0.7h-1.8v9.7h-2.5v-22.7zm-0.7 10.7q1.6 0 2.4-0.6 0.8-0.6 0.8-2.5v-2.2q0-1.5-0.6-2.3-0.6-0.8-2-0.8h-2.4v8.4z"/><path class="a" d="m84 88.6q2.6 0 3.8 1.6 1.2 1.5 1.2 4.1v0.6h-2.4v-0.8q0-1.5-0.6-2.3-0.6-0.9-1.9-0.9-1.4 0-2 0.9-0.6 0.8-0.6 2.3 0 1.3 0.5 2.2 0.6 1 1.4 1.7 0.9 0.8 1.9 1.6 1 0.7 1.8 1.7 0.8 0.9 1.4 2 0.6 1.1 0.6 2.7 0 2.6-1.3 4.1-1.2 1.6-3.8 1.6-2.7 0-3.9-1.6-1.2-1.5-1.2-4.1v-1.3h2.4v1.5q0 1.5 0.6 2.3 0.6 0.9 2 0.9 1.4 0 2-0.9 0.7-0.8 0.7-2.3-0.1-1.3-0.6-2.2-0.6-0.9-1.4-1.7-0.9-0.8-1.8-1.6-1-0.7-1.8-1.7-0.9-0.9-1.4-2-0.6-1.1-0.6-2.7 0-2.6 1.2-4.2 1.2-1.5 3.8-1.5z"/><path class="a" d="m102 98.9v2.2h-5.5v8.1h6.8v2.3h-9.3v-22.7h9.3v2.3h-6.8v7.8z"/><path class="a" d="m108.3 99h6.1v2.3h-6.1z"/><path fill-rule="evenodd" class="a" d="m122.2 106.9l-0.8 4.6h-2.4l4.4-22.7h3.6l4.3 22.7h-2.5l-0.9-4.6zm0.4-2.2h5l-2.5-13z"/><path class="a" d="m135.9 99h6.2v2.3h-6.2z"/><path class="a" d="m152.1 88.6q2.6 0 3.8 1.6 1.2 1.5 1.2 4.1v0.6h-2.4v-0.8q0-1.5-0.6-2.3-0.6-0.9-1.9-0.9-1.4 0-2 0.9-0.6 0.8-0.6 2.3 0 1.3 0.5 2.2 0.6 1 1.4 1.7 0.9 0.8 1.9 1.6 0.9 0.7 1.8 1.7 0.8 0.9 1.4 2 0.6 1.1 0.6 2.7 0 2.6-1.3 4.1-1.2 1.6-3.8 1.6-2.7 0-3.9-1.6-1.2-1.5-1.2-4.1v-1.3h2.3v1.5q0 1.5 0.7 2.3 0.6 0.9 2 0.9 1.3 0 2-0.9 0.6-0.8 0.6-2.3 0-1.3-0.5-2.2-0.6-0.9-1.4-1.7-0.9-0.8-1.8-1.6-1-0.7-1.8-1.7-0.9-0.9-1.5-2-0.5-1.1-0.5-2.7 0-2.6 1.2-4.2 1.2-1.5 3.8-1.5z"/><path class="a" d="m165.4 111.5v-20.4h-4.2v-2.3h10.9v2.3h-4.2v20.4z"/><path class="a" d="m184.6 98.9v2.2h-5.5v8.1h6.8v2.3h-9.3v-22.7h9.3v2.3h-6.8v7.8z"/><path fill-rule="evenodd" class="a" d="m195.9 88.8q2.6 0 3.8 1.5 1.2 1.5 1.2 4.1v2.7q0 2.7-1.2 4.1-1.3 1.3-4 1.3h-2.2v9h-2.6v-22.7zm-0.1 11.5q1.4 0 2-0.7 0.7-0.7 0.7-2.3v-3.1q0-1.5-0.6-2.3-0.6-0.8-2-0.8h-2.4v9.2z"/><path fill-rule="evenodd" class="a" d="m193 138.3q-2.7 0-3.9-1.3-1.1-1.3-1.1-3.8v-1.9q0-1.9 0.6-3 0.7-1.2 2.2-1.6-1.6-0.5-2.2-1.7-0.7-1.2-0.7-3.1v-3.5q0-0.7 0-1.4-0.1-0.7-0.4-1.3h2.5q0.3 0.5 0.4 1.1 0.1 0.5 0.1 1.7v3.5q0 1.9 0.8 2.6 0.9 0.8 2.4 0.8h1.8v-9.7h2.5v22.6zm0.7-10.6q-1.5 0-2.4 0.6-0.8 0.6-0.8 2.5v2.1q0 1.6 0.6 2.3 0.6 0.8 2 0.8h2.5v-8.3z"/><path class="a" d="m174.5 128.3v-2.3h5.6v-8h-6.8v-2.3h9.3v22.6h-9.3v-2.3h6.8v-7.7z"/><path class="a" d="m166.3 138.3l-3.7-19.6-3.6 19.6h-2.4l4.3-22.6h3.7l4.3 22.6z"/><path class="a" d="m143.9 128.3v-2.3h5.5v-8h-6.7v-2.3h9.3v22.6h-9.3v-2.3h6.7v-7.7z"/><path fill-rule="evenodd" class="a" d="m132.6 138.3q-2.7 0-3.9-1.3-1.2-1.3-1.2-3.8v-1.9q0-1.9 0.7-3 0.7-1.2 2.1-1.6-1.5-0.5-2.2-1.7-0.6-1.2-0.6-3.1v-3.5q0-0.7-0.1-1.4 0-0.7-0.4-1.3h2.6q0.2 0.5 0.3 1.1 0.1 0.5 0.1 1.7v3.5q0 1.9 0.9 2.6 0.8 0.8 2.4 0.8h1.8v-9.7h2.5v22.6zm0.6-10.6q-1.5 0-2.3 0.6-0.9 0.6-0.9 2.5v2.1q0 1.6 0.6 2.3 0.6 0.8 2.1 0.8h2.4v-8.3z"/><path class="a" d="m117.4 138.5q-2.6 0-3.8-1.5-1.3-1.5-1.3-4.1v-0.6h2.4v0.7q0 1.6 0.7 2.4 0.6 0.9 1.9 0.9 1.4 0 2-0.9 0.6-0.8 0.6-2.3 0-1.3-0.6-2.2-0.5-1-1.4-1.8-0.8-0.8-1.8-1.5-1-0.8-1.8-1.7-0.9-0.9-1.4-2-0.6-1.2-0.6-2.8 0-2.5 1.3-4.1 1.2-1.5 3.8-1.5 2.6 0 3.9 1.5 1.2 1.6 1.2 4.1v1.3h-2.4v-1.4q0-1.5-0.6-2.4-0.7-0.8-2-0.8-1.4 0-2 0.8-0.7 0.9-0.7 2.4 0 1.3 0.6 2.2 0.6 0.9 1.4 1.7 0.8 0.8 1.8 1.5 1 0.8 1.8 1.7 0.9 0.9 1.4 2.1 0.6 1.1 0.6 2.7 0 2.6-1.2 4.1-1.3 1.5-3.8 1.5z"/><path class="a" d="m99.3 128.3v-2.3h5.6v-8h-6.8v-2.3h9.3v22.6h-9.3v-2.3h6.8v-7.7z"/><path class="a" d="m93.1 128.2h-6.2v-2.3h6.2z"/><path fill-rule="evenodd" class="a" d="m79.2 120.3l0.8-4.6h2.4l-4.4 22.6h-3.6l-4.4-22.6h2.6l0.8 4.6zm-0.3 2.1h-5l2.5 13.1z"/><path class="a" d="m65.4 128.2h-6.1v-2.3h6.1z"/><path class="a" d="m49.3 138.5q-2.6 0-3.8-1.5-1.2-1.5-1.3-4.1v-0.6h2.4v0.7q0 1.6 0.7 2.4 0.6 0.9 1.9 0.9 1.4 0 2-0.9 0.6-0.8 0.6-2.3 0-1.3-0.6-2.2-0.5-1-1.4-1.8-0.8-0.8-1.8-1.5-1-0.8-1.8-1.7-0.9-0.9-1.4-2-0.6-1.2-0.6-2.8 0-2.5 1.3-4.1 1.2-1.5 3.8-1.5 2.6 0 3.9 1.5 1.2 1.6 1.2 4.1v1.3h-2.4v-1.4q0-1.5-0.6-2.4-0.7-0.8-2-0.8-1.4 0-2 0.8-0.7 0.9-0.7 2.4 0 1.3 0.6 2.2 0.6 0.9 1.4 1.7 0.8 0.8 1.8 1.5 1 0.8 1.8 1.7 0.9 0.9 1.4 2.1 0.6 1.1 0.6 2.7 0 2.6-1.2 4.1-1.3 1.5-3.8 1.5z"/><path class="a" d="m36 115.7v20.3h4.1v2.3h-10.8v-2.3h4.2v-20.3z"/><path class="a" d="m16.8 128.3v-2.3h5.5v-8h-6.8v-2.3h9.3v22.6h-9.3v-2.3h6.8v-7.7z"/><path fill-rule="evenodd" class="a" d="m5.5 138.3q-2.7 0-3.9-1.4-1.2-1.5-1.2-4.1v-2.7q0-2.7 1.3-4.1 1.3-1.4 4-1.4h2.2v-8.9h2.5v22.6zm0.2-11.4q-1.4 0-2 0.7-0.7 0.7-0.7 2.3v3q0 1.6 0.6 2.3 0.6 0.8 1.9 0.8h2.5v-9.1z"/></svg>